M48
; DRILL file {KiCad (5.1.12)-1} date 12/09/21 20:49:20
; FORMAT={-:-/ absolute / inch / decimal}
; #@! TF.CreationDate,2021-12-09T20:49:20+01:00
; #@! TF.GenerationSoftware,Kicad,Pcbnew,(5.1.12)-1
; #@! TF.FileFunction,Plated,1,2,PTH
FMAT,2
INCH
T1C0.0374
T2C0.0394
T3C0.0512
%
G90
G05
T1
X7.126Y-2.5197
X7.126Y-2.6181
X7.126Y-2.7165
X7.126Y-2.815
T2
X4.6457Y-2.5197
X4.7441Y-2.5197
X5.0689Y-2.5197
X5.1673Y-2.5197
X5.4921Y-2.5197
X5.5906Y-2.5197
X5.7087Y-3.1693
X5.8071Y-3.1693
X6.6535Y-2.3031
X6.6535Y-2.4031
X6.6535Y-2.5031
X6.6535Y-2.6031
X6.6535Y-2.7031
X6.6535Y-2.8031
X6.6535Y-2.9031
X6.6535Y-3.0031
X6.7535Y-2.3031
X6.7535Y-2.4031
X6.7535Y-2.5031
X6.7535Y-2.6031
X6.7535Y-2.7031
X6.7535Y-2.8031
X6.7535Y-2.9031
X6.7535Y-3.0031
T3
X4.685Y-3.1496
X4.885Y-3.1496
X5.1772Y-3.1496
X5.3772Y-3.1496
T2
G00X4.0157Y-2.6378
M15
G01X4.0157Y-2.7165
M16
G05
G00X4.0945Y-2.8622
M15
G01X4.1732Y-2.8622
M16
G05
G00X4.252Y-2.6378
M15
G01X4.252Y-2.7165
M16
G05
T0
M30
