%TF.GenerationSoftware,KiCad,Pcbnew,(5.1.12)-1*%
%TF.CreationDate,2021-12-09T20:49:17+01:00*%
%TF.ProjectId,adapter01,61646170-7465-4723-9031-2e6b69636164,rev?*%
%TF.SameCoordinates,Original*%
%TF.FileFunction,Legend,Top*%
%TF.FilePolarity,Positive*%
%FSLAX46Y46*%
G04 Gerber Fmt 4.6, Leading zero omitted, Abs format (unit mm)*
G04 Created by KiCad (PCBNEW (5.1.12)-1) date 2021-12-09 20:49:17*
%MOMM*%
%LPD*%
G01*
G04 APERTURE LIST*
%ADD10C,0.150000*%
%ADD11C,0.200000*%
%ADD12C,0.300000*%
%ADD13C,0.120000*%
%ADD14C,0.010000*%
G04 APERTURE END LIST*
D10*
X165880952Y-82952380D02*
X165880952Y-83666666D01*
X165833333Y-83809523D01*
X165738095Y-83904761D01*
X165595238Y-83952380D01*
X165500000Y-83952380D01*
X166833333Y-83952380D02*
X166357142Y-83952380D01*
X166357142Y-82952380D01*
X167738095Y-83857142D02*
X167690476Y-83904761D01*
X167547619Y-83952380D01*
X167452380Y-83952380D01*
X167309523Y-83904761D01*
X167214285Y-83809523D01*
X167166666Y-83714285D01*
X167119047Y-83523809D01*
X167119047Y-83380952D01*
X167166666Y-83190476D01*
X167214285Y-83095238D01*
X167309523Y-83000000D01*
X167452380Y-82952380D01*
X167547619Y-82952380D01*
X167690476Y-83000000D01*
X167738095Y-83047619D01*
X168452380Y-82952380D02*
X168452380Y-83666666D01*
X168404761Y-83809523D01*
X168309523Y-83904761D01*
X168166666Y-83952380D01*
X168071428Y-83952380D01*
X169404761Y-83952380D02*
X168928571Y-83952380D01*
X168928571Y-82952380D01*
X170309523Y-83857142D02*
X170261904Y-83904761D01*
X170119047Y-83952380D01*
X170023809Y-83952380D01*
X169880952Y-83904761D01*
X169785714Y-83809523D01*
X169738095Y-83714285D01*
X169690476Y-83523809D01*
X169690476Y-83380952D01*
X169738095Y-83190476D01*
X169785714Y-83095238D01*
X169880952Y-83000000D01*
X170023809Y-82952380D01*
X170119047Y-82952380D01*
X170261904Y-83000000D01*
X170309523Y-83047619D01*
X171023809Y-82952380D02*
X171023809Y-83666666D01*
X170976190Y-83809523D01*
X170880952Y-83904761D01*
X170738095Y-83952380D01*
X170642857Y-83952380D01*
X171976190Y-83952380D02*
X171500000Y-83952380D01*
X171500000Y-82952380D01*
X172880952Y-83857142D02*
X172833333Y-83904761D01*
X172690476Y-83952380D01*
X172595238Y-83952380D01*
X172452380Y-83904761D01*
X172357142Y-83809523D01*
X172309523Y-83714285D01*
X172261904Y-83523809D01*
X172261904Y-83380952D01*
X172309523Y-83190476D01*
X172357142Y-83095238D01*
X172452380Y-83000000D01*
X172595238Y-82952380D01*
X172690476Y-82952380D01*
X172833333Y-83000000D01*
X172880952Y-83047619D01*
X173595238Y-82952380D02*
X173595238Y-83666666D01*
X173547619Y-83809523D01*
X173452380Y-83904761D01*
X173309523Y-83952380D01*
X173214285Y-83952380D01*
X174547619Y-83952380D02*
X174071428Y-83952380D01*
X174071428Y-82952380D01*
X175452380Y-83857142D02*
X175404761Y-83904761D01*
X175261904Y-83952380D01*
X175166666Y-83952380D01*
X175023809Y-83904761D01*
X174928571Y-83809523D01*
X174880952Y-83714285D01*
X174833333Y-83523809D01*
X174833333Y-83380952D01*
X174880952Y-83190476D01*
X174928571Y-83095238D01*
X175023809Y-83000000D01*
X175166666Y-82952380D01*
X175261904Y-82952380D01*
X175404761Y-83000000D01*
X175452380Y-83047619D01*
X99666666Y-62452380D02*
X99666666Y-61452380D01*
X99904761Y-61452380D01*
X100047619Y-61500000D01*
X100142857Y-61595238D01*
X100190476Y-61690476D01*
X100238095Y-61880952D01*
X100238095Y-62023809D01*
X100190476Y-62214285D01*
X100142857Y-62309523D01*
X100047619Y-62404761D01*
X99904761Y-62452380D01*
X99666666Y-62452380D01*
X101238095Y-62357142D02*
X101190476Y-62404761D01*
X101047619Y-62452380D01*
X100952380Y-62452380D01*
X100809523Y-62404761D01*
X100714285Y-62309523D01*
X100666666Y-62214285D01*
X100619047Y-62023809D01*
X100619047Y-61880952D01*
X100666666Y-61690476D01*
X100714285Y-61595238D01*
X100809523Y-61500000D01*
X100952380Y-61452380D01*
X101047619Y-61452380D01*
X101190476Y-61500000D01*
X101238095Y-61547619D01*
X102428571Y-62452380D02*
X102428571Y-61452380D01*
X102904761Y-61785714D02*
X102904761Y-62452380D01*
X102904761Y-61880952D02*
X102952380Y-61833333D01*
X103047619Y-61785714D01*
X103190476Y-61785714D01*
X103285714Y-61833333D01*
X103333333Y-61928571D01*
X103333333Y-62452380D01*
D11*
X138678571Y-60107142D02*
X139821428Y-60107142D01*
X139250000Y-60678571D02*
X139250000Y-59535714D01*
X141678571Y-60107142D02*
X142821428Y-60107142D01*
X127333333Y-60071428D02*
X128095238Y-60071428D01*
X127714285Y-60452380D02*
X127714285Y-59690476D01*
X129047619Y-59452380D02*
X128571428Y-59452380D01*
X128523809Y-59928571D01*
X128571428Y-59880952D01*
X128666666Y-59833333D01*
X128904761Y-59833333D01*
X129000000Y-59880952D01*
X129047619Y-59928571D01*
X129095238Y-60023809D01*
X129095238Y-60261904D01*
X129047619Y-60357142D01*
X129000000Y-60404761D01*
X128904761Y-60452380D01*
X128666666Y-60452380D01*
X128571428Y-60404761D01*
X128523809Y-60357142D01*
X129380952Y-59452380D02*
X129714285Y-60452380D01*
X130047619Y-59452380D01*
X131904761Y-60071428D02*
X132666666Y-60071428D01*
D10*
X139380952Y-68928571D02*
X139047619Y-68928571D01*
X139047619Y-69452380D02*
X139047619Y-68452380D01*
X139523809Y-68452380D01*
X140333333Y-69452380D02*
X140333333Y-68928571D01*
X140285714Y-68833333D01*
X140190476Y-68785714D01*
X140000000Y-68785714D01*
X139904761Y-68833333D01*
X140333333Y-69404761D02*
X140238095Y-69452380D01*
X140000000Y-69452380D01*
X139904761Y-69404761D01*
X139857142Y-69309523D01*
X139857142Y-69214285D01*
X139904761Y-69119047D01*
X140000000Y-69071428D01*
X140238095Y-69071428D01*
X140333333Y-69023809D01*
X140809523Y-68785714D02*
X140809523Y-69452380D01*
X140809523Y-68880952D02*
X140857142Y-68833333D01*
X140952380Y-68785714D01*
X141095238Y-68785714D01*
X141190476Y-68833333D01*
X141238095Y-68928571D01*
X141238095Y-69452380D01*
X142428571Y-68547619D02*
X142476190Y-68500000D01*
X142571428Y-68452380D01*
X142809523Y-68452380D01*
X142904761Y-68500000D01*
X142952380Y-68547619D01*
X143000000Y-68642857D01*
X143000000Y-68738095D01*
X142952380Y-68880952D01*
X142380952Y-69452380D01*
X143000000Y-69452380D01*
X128380952Y-68928571D02*
X128047619Y-68928571D01*
X128047619Y-69452380D02*
X128047619Y-68452380D01*
X128523809Y-68452380D01*
X129333333Y-69452380D02*
X129333333Y-68928571D01*
X129285714Y-68833333D01*
X129190476Y-68785714D01*
X129000000Y-68785714D01*
X128904761Y-68833333D01*
X129333333Y-69404761D02*
X129238095Y-69452380D01*
X129000000Y-69452380D01*
X128904761Y-69404761D01*
X128857142Y-69309523D01*
X128857142Y-69214285D01*
X128904761Y-69119047D01*
X129000000Y-69071428D01*
X129238095Y-69071428D01*
X129333333Y-69023809D01*
X129809523Y-68785714D02*
X129809523Y-69452380D01*
X129809523Y-68880952D02*
X129857142Y-68833333D01*
X129952380Y-68785714D01*
X130095238Y-68785714D01*
X130190476Y-68833333D01*
X130238095Y-68928571D01*
X130238095Y-69452380D01*
X132000000Y-69452380D02*
X131428571Y-69452380D01*
X131714285Y-69452380D02*
X131714285Y-68452380D01*
X131619047Y-68595238D01*
X131523809Y-68690476D01*
X131428571Y-68738095D01*
X115416666Y-68452380D02*
X115988095Y-68452380D01*
X115702380Y-69452380D02*
X115702380Y-68452380D01*
X116321428Y-69452380D02*
X116321428Y-68452380D01*
X116750000Y-69452380D02*
X116750000Y-68928571D01*
X116702380Y-68833333D01*
X116607142Y-68785714D01*
X116464285Y-68785714D01*
X116369047Y-68833333D01*
X116321428Y-68880952D01*
X117607142Y-69404761D02*
X117511904Y-69452380D01*
X117321428Y-69452380D01*
X117226190Y-69404761D01*
X117178571Y-69309523D01*
X117178571Y-68928571D01*
X117226190Y-68833333D01*
X117321428Y-68785714D01*
X117511904Y-68785714D01*
X117607142Y-68833333D01*
X117654761Y-68928571D01*
X117654761Y-69023809D01*
X117178571Y-69119047D01*
X118083333Y-69452380D02*
X118083333Y-68785714D01*
X118083333Y-68976190D02*
X118130952Y-68880952D01*
X118178571Y-68833333D01*
X118273809Y-68785714D01*
X118369047Y-68785714D01*
X118702380Y-69452380D02*
X118702380Y-68785714D01*
X118702380Y-68880952D02*
X118750000Y-68833333D01*
X118845238Y-68785714D01*
X118988095Y-68785714D01*
X119083333Y-68833333D01*
X119130952Y-68928571D01*
X119130952Y-69452380D01*
X119130952Y-68928571D02*
X119178571Y-68833333D01*
X119273809Y-68785714D01*
X119416666Y-68785714D01*
X119511904Y-68833333D01*
X119559523Y-68928571D01*
X119559523Y-69452380D01*
X120035714Y-69452380D02*
X120035714Y-68785714D01*
X120035714Y-68452380D02*
X119988095Y-68500000D01*
X120035714Y-68547619D01*
X120083333Y-68500000D01*
X120035714Y-68452380D01*
X120035714Y-68547619D01*
X120464285Y-69404761D02*
X120559523Y-69452380D01*
X120750000Y-69452380D01*
X120845238Y-69404761D01*
X120892857Y-69309523D01*
X120892857Y-69261904D01*
X120845238Y-69166666D01*
X120750000Y-69119047D01*
X120607142Y-69119047D01*
X120511904Y-69071428D01*
X120464285Y-68976190D01*
X120464285Y-68928571D01*
X120511904Y-68833333D01*
X120607142Y-68785714D01*
X120750000Y-68785714D01*
X120845238Y-68833333D01*
X121178571Y-68785714D02*
X121559523Y-68785714D01*
X121321428Y-68452380D02*
X121321428Y-69309523D01*
X121369047Y-69404761D01*
X121464285Y-69452380D01*
X121559523Y-69452380D01*
X122035714Y-69452380D02*
X121940476Y-69404761D01*
X121892857Y-69357142D01*
X121845238Y-69261904D01*
X121845238Y-68976190D01*
X121892857Y-68880952D01*
X121940476Y-68833333D01*
X122035714Y-68785714D01*
X122178571Y-68785714D01*
X122273809Y-68833333D01*
X122321428Y-68880952D01*
X122369047Y-68976190D01*
X122369047Y-69261904D01*
X122321428Y-69357142D01*
X122273809Y-69404761D01*
X122178571Y-69452380D01*
X122035714Y-69452380D01*
X122797619Y-69452380D02*
X122797619Y-68785714D01*
X122797619Y-68976190D02*
X122845238Y-68880952D01*
X122892857Y-68833333D01*
X122988095Y-68785714D01*
X123083333Y-68785714D01*
X145404761Y-76666666D02*
X145880952Y-76666666D01*
X145309523Y-76952380D02*
X145642857Y-75952380D01*
X145976190Y-76952380D01*
X146738095Y-76285714D02*
X146738095Y-76952380D01*
X146309523Y-76285714D02*
X146309523Y-76809523D01*
X146357142Y-76904761D01*
X146452380Y-76952380D01*
X146595238Y-76952380D01*
X146690476Y-76904761D01*
X146738095Y-76857142D01*
X147119047Y-76952380D02*
X147642857Y-76285714D01*
X147119047Y-76285714D02*
X147642857Y-76952380D01*
X175928571Y-70928571D02*
X175928571Y-70595238D01*
X176452380Y-70452380D02*
X176452380Y-70928571D01*
X175452380Y-70928571D01*
X175452380Y-70452380D01*
X176404761Y-69309523D02*
X176452380Y-69166666D01*
X176452380Y-68928571D01*
X176404761Y-68833333D01*
X176357142Y-68785714D01*
X176261904Y-68738095D01*
X176166666Y-68738095D01*
X176071428Y-68785714D01*
X176023809Y-68833333D01*
X175976190Y-68928571D01*
X175928571Y-69119047D01*
X175880952Y-69214285D01*
X175833333Y-69261904D01*
X175738095Y-69309523D01*
X175642857Y-69309523D01*
X175547619Y-69261904D01*
X175500000Y-69214285D01*
X175452380Y-69119047D01*
X175452380Y-68880952D01*
X175500000Y-68738095D01*
X175785714Y-68452380D02*
X175785714Y-68071428D01*
X175452380Y-68309523D02*
X176309523Y-68309523D01*
X176404761Y-68261904D01*
X176452380Y-68166666D01*
X176452380Y-68071428D01*
X176404761Y-67357142D02*
X176452380Y-67452380D01*
X176452380Y-67642857D01*
X176404761Y-67738095D01*
X176309523Y-67785714D01*
X175928571Y-67785714D01*
X175833333Y-67738095D01*
X175785714Y-67642857D01*
X175785714Y-67452380D01*
X175833333Y-67357142D01*
X175928571Y-67309523D01*
X176023809Y-67309523D01*
X176119047Y-67785714D01*
X175785714Y-66880952D02*
X176785714Y-66880952D01*
X175833333Y-66880952D02*
X175785714Y-66785714D01*
X175785714Y-66595238D01*
X175833333Y-66500000D01*
X175880952Y-66452380D01*
X175976190Y-66404761D01*
X176261904Y-66404761D01*
X176357142Y-66452380D01*
X176404761Y-66500000D01*
X176452380Y-66595238D01*
X176452380Y-66785714D01*
X176404761Y-66880952D01*
X175785714Y-65976190D02*
X176785714Y-65976190D01*
X175833333Y-65976190D02*
X175785714Y-65880952D01*
X175785714Y-65690476D01*
X175833333Y-65595238D01*
X175880952Y-65547619D01*
X175976190Y-65500000D01*
X176261904Y-65500000D01*
X176357142Y-65547619D01*
X176404761Y-65595238D01*
X176452380Y-65690476D01*
X176452380Y-65880952D01*
X176404761Y-65976190D01*
X176404761Y-64690476D02*
X176452380Y-64785714D01*
X176452380Y-64976190D01*
X176404761Y-65071428D01*
X176309523Y-65119047D01*
X175928571Y-65119047D01*
X175833333Y-65071428D01*
X175785714Y-64976190D01*
X175785714Y-64785714D01*
X175833333Y-64690476D01*
X175928571Y-64642857D01*
X176023809Y-64642857D01*
X176119047Y-65119047D01*
X176452380Y-64214285D02*
X175785714Y-64214285D01*
X175976190Y-64214285D02*
X175880952Y-64166666D01*
X175833333Y-64119047D01*
X175785714Y-64023809D01*
X175785714Y-63928571D01*
D12*
X123698095Y-72642857D02*
X125221904Y-72642857D01*
X118618095Y-72642857D02*
X120141904Y-72642857D01*
X119380000Y-73404761D02*
X119380000Y-71880952D01*
D10*
X132429523Y-72842380D02*
X132429523Y-71842380D01*
X132429523Y-72318571D02*
X133000952Y-72318571D01*
X133000952Y-72842380D02*
X133000952Y-71842380D01*
X133858095Y-72794761D02*
X133762857Y-72842380D01*
X133572380Y-72842380D01*
X133477142Y-72794761D01*
X133429523Y-72699523D01*
X133429523Y-72318571D01*
X133477142Y-72223333D01*
X133572380Y-72175714D01*
X133762857Y-72175714D01*
X133858095Y-72223333D01*
X133905714Y-72318571D01*
X133905714Y-72413809D01*
X133429523Y-72509047D01*
X134762857Y-72842380D02*
X134762857Y-72318571D01*
X134715238Y-72223333D01*
X134620000Y-72175714D01*
X134429523Y-72175714D01*
X134334285Y-72223333D01*
X134762857Y-72794761D02*
X134667619Y-72842380D01*
X134429523Y-72842380D01*
X134334285Y-72794761D01*
X134286666Y-72699523D01*
X134286666Y-72604285D01*
X134334285Y-72509047D01*
X134429523Y-72461428D01*
X134667619Y-72461428D01*
X134762857Y-72413809D01*
X135096190Y-72175714D02*
X135477142Y-72175714D01*
X135239047Y-71842380D02*
X135239047Y-72699523D01*
X135286666Y-72794761D01*
X135381904Y-72842380D01*
X135477142Y-72842380D01*
X136191428Y-72794761D02*
X136096190Y-72842380D01*
X135905714Y-72842380D01*
X135810476Y-72794761D01*
X135762857Y-72699523D01*
X135762857Y-72318571D01*
X135810476Y-72223333D01*
X135905714Y-72175714D01*
X136096190Y-72175714D01*
X136191428Y-72223333D01*
X136239047Y-72318571D01*
X136239047Y-72413809D01*
X135762857Y-72509047D01*
X136667619Y-72842380D02*
X136667619Y-72175714D01*
X136667619Y-72366190D02*
X136715238Y-72270952D01*
X136762857Y-72223333D01*
X136858095Y-72175714D01*
X136953333Y-72175714D01*
D11*
X127047619Y-56102619D02*
X127095238Y-56055000D01*
X127190476Y-56007380D01*
X127428571Y-56007380D01*
X127523809Y-56055000D01*
X127571428Y-56102619D01*
X127619047Y-56197857D01*
X127619047Y-56293095D01*
X127571428Y-56435952D01*
X127000000Y-57007380D01*
X127619047Y-57007380D01*
X128238095Y-56007380D02*
X128333333Y-56007380D01*
X128428571Y-56055000D01*
X128476190Y-56102619D01*
X128523809Y-56197857D01*
X128571428Y-56388333D01*
X128571428Y-56626428D01*
X128523809Y-56816904D01*
X128476190Y-56912142D01*
X128428571Y-56959761D01*
X128333333Y-57007380D01*
X128238095Y-57007380D01*
X128142857Y-56959761D01*
X128095238Y-56912142D01*
X128047619Y-56816904D01*
X128000000Y-56626428D01*
X128000000Y-56388333D01*
X128047619Y-56197857D01*
X128095238Y-56102619D01*
X128142857Y-56055000D01*
X128238095Y-56007380D01*
X128952380Y-56102619D02*
X129000000Y-56055000D01*
X129095238Y-56007380D01*
X129333333Y-56007380D01*
X129428571Y-56055000D01*
X129476190Y-56102619D01*
X129523809Y-56197857D01*
X129523809Y-56293095D01*
X129476190Y-56435952D01*
X128904761Y-57007380D01*
X129523809Y-57007380D01*
X130476190Y-57007380D02*
X129904761Y-57007380D01*
X130190476Y-57007380D02*
X130190476Y-56007380D01*
X130095238Y-56150238D01*
X130000000Y-56245476D01*
X129904761Y-56293095D01*
X131666666Y-56626428D02*
X132428571Y-56626428D01*
X133619047Y-56959761D02*
X133761904Y-57007380D01*
X134000000Y-57007380D01*
X134095238Y-56959761D01*
X134142857Y-56912142D01*
X134190476Y-56816904D01*
X134190476Y-56721666D01*
X134142857Y-56626428D01*
X134095238Y-56578809D01*
X134000000Y-56531190D01*
X133809523Y-56483571D01*
X133714285Y-56435952D01*
X133666666Y-56388333D01*
X133619047Y-56293095D01*
X133619047Y-56197857D01*
X133666666Y-56102619D01*
X133714285Y-56055000D01*
X133809523Y-56007380D01*
X134047619Y-56007380D01*
X134190476Y-56055000D01*
X134476190Y-56340714D02*
X134857142Y-56340714D01*
X134619047Y-56007380D02*
X134619047Y-56864523D01*
X134666666Y-56959761D01*
X134761904Y-57007380D01*
X134857142Y-57007380D01*
X135571428Y-56959761D02*
X135476190Y-57007380D01*
X135285714Y-57007380D01*
X135190476Y-56959761D01*
X135142857Y-56864523D01*
X135142857Y-56483571D01*
X135190476Y-56388333D01*
X135285714Y-56340714D01*
X135476190Y-56340714D01*
X135571428Y-56388333D01*
X135619047Y-56483571D01*
X135619047Y-56578809D01*
X135142857Y-56674047D01*
X135904761Y-56340714D02*
X136285714Y-56340714D01*
X136047619Y-57007380D02*
X136047619Y-56150238D01*
X136095238Y-56055000D01*
X136190476Y-56007380D01*
X136285714Y-56007380D01*
X137047619Y-57007380D02*
X137047619Y-56483571D01*
X137000000Y-56388333D01*
X136904761Y-56340714D01*
X136714285Y-56340714D01*
X136619047Y-56388333D01*
X137047619Y-56959761D02*
X136952380Y-57007380D01*
X136714285Y-57007380D01*
X136619047Y-56959761D01*
X136571428Y-56864523D01*
X136571428Y-56769285D01*
X136619047Y-56674047D01*
X136714285Y-56626428D01*
X136952380Y-56626428D01*
X137047619Y-56578809D01*
X137523809Y-56340714D02*
X137523809Y-57007380D01*
X137523809Y-56435952D02*
X137571428Y-56388333D01*
X137666666Y-56340714D01*
X137809523Y-56340714D01*
X137904761Y-56388333D01*
X137952380Y-56483571D01*
X137952380Y-57007380D01*
X139190476Y-57007380D02*
X139190476Y-56007380D01*
X139190476Y-56483571D02*
X139761904Y-56483571D01*
X139761904Y-57007380D02*
X139761904Y-56007380D01*
X140619047Y-56959761D02*
X140523809Y-57007380D01*
X140333333Y-57007380D01*
X140238095Y-56959761D01*
X140190476Y-56864523D01*
X140190476Y-56483571D01*
X140238095Y-56388333D01*
X140333333Y-56340714D01*
X140523809Y-56340714D01*
X140619047Y-56388333D01*
X140666666Y-56483571D01*
X140666666Y-56578809D01*
X140190476Y-56674047D01*
X141095238Y-57007380D02*
X141095238Y-56340714D01*
X141095238Y-56531190D02*
X141142857Y-56435952D01*
X141190476Y-56388333D01*
X141285714Y-56340714D01*
X141380952Y-56340714D01*
X141714285Y-57007380D02*
X141714285Y-56340714D01*
X141714285Y-56435952D02*
X141761904Y-56388333D01*
X141857142Y-56340714D01*
X142000000Y-56340714D01*
X142095238Y-56388333D01*
X142142857Y-56483571D01*
X142142857Y-57007380D01*
X142142857Y-56483571D02*
X142190476Y-56388333D01*
X142285714Y-56340714D01*
X142428571Y-56340714D01*
X142523809Y-56388333D01*
X142571428Y-56483571D01*
X142571428Y-57007380D01*
X143476190Y-57007380D02*
X143476190Y-56483571D01*
X143428571Y-56388333D01*
X143333333Y-56340714D01*
X143142857Y-56340714D01*
X143047619Y-56388333D01*
X143476190Y-56959761D02*
X143380952Y-57007380D01*
X143142857Y-57007380D01*
X143047619Y-56959761D01*
X143000000Y-56864523D01*
X143000000Y-56769285D01*
X143047619Y-56674047D01*
X143142857Y-56626428D01*
X143380952Y-56626428D01*
X143476190Y-56578809D01*
X143952380Y-56340714D02*
X143952380Y-57007380D01*
X143952380Y-56435952D02*
X144000000Y-56388333D01*
X144095238Y-56340714D01*
X144238095Y-56340714D01*
X144333333Y-56388333D01*
X144380952Y-56483571D01*
X144380952Y-57007380D01*
X144857142Y-56340714D02*
X144857142Y-57007380D01*
X144857142Y-56435952D02*
X144904761Y-56388333D01*
X145000000Y-56340714D01*
X145142857Y-56340714D01*
X145238095Y-56388333D01*
X145285714Y-56483571D01*
X145285714Y-57007380D01*
X145809523Y-56959761D02*
X145809523Y-57007380D01*
X145761904Y-57102619D01*
X145714285Y-57150238D01*
X147571428Y-56912142D02*
X147523809Y-56959761D01*
X147380952Y-57007380D01*
X147285714Y-57007380D01*
X147142857Y-56959761D01*
X147047619Y-56864523D01*
X147000000Y-56769285D01*
X146952380Y-56578809D01*
X146952380Y-56435952D01*
X147000000Y-56245476D01*
X147047619Y-56150238D01*
X147142857Y-56055000D01*
X147285714Y-56007380D01*
X147380952Y-56007380D01*
X147523809Y-56055000D01*
X147571428Y-56102619D01*
X148000000Y-57007380D02*
X148000000Y-56007380D01*
X148571428Y-57007380D01*
X148571428Y-56007380D01*
X149619047Y-56912142D02*
X149571428Y-56959761D01*
X149428571Y-57007380D01*
X149333333Y-57007380D01*
X149190476Y-56959761D01*
X149095238Y-56864523D01*
X149047619Y-56769285D01*
X149000000Y-56578809D01*
X149000000Y-56435952D01*
X149047619Y-56245476D01*
X149095238Y-56150238D01*
X149190476Y-56055000D01*
X149333333Y-56007380D01*
X149428571Y-56007380D01*
X149571428Y-56055000D01*
X149619047Y-56102619D01*
X150809523Y-57007380D02*
X150809523Y-56007380D01*
X151380952Y-57007380D02*
X150952380Y-56435952D01*
X151380952Y-56007380D02*
X150809523Y-56578809D01*
X151809523Y-57007380D02*
X151809523Y-56340714D01*
X151809523Y-56007380D02*
X151761904Y-56055000D01*
X151809523Y-56102619D01*
X151857142Y-56055000D01*
X151809523Y-56007380D01*
X151809523Y-56102619D01*
X152142857Y-56340714D02*
X152523809Y-56340714D01*
X152285714Y-56007380D02*
X152285714Y-56864523D01*
X152333333Y-56959761D01*
X152428571Y-57007380D01*
X152523809Y-57007380D01*
X153285714Y-56959761D02*
X153190476Y-57007380D01*
X153000000Y-57007380D01*
X152904761Y-56959761D01*
X152857142Y-56912142D01*
X152809523Y-56816904D01*
X152809523Y-56531190D01*
X152857142Y-56435952D01*
X152904761Y-56388333D01*
X153000000Y-56340714D01*
X153190476Y-56340714D01*
X153285714Y-56388333D01*
X153714285Y-57007380D02*
X153714285Y-56007380D01*
X154142857Y-57007380D02*
X154142857Y-56483571D01*
X154095238Y-56388333D01*
X154000000Y-56340714D01*
X153857142Y-56340714D01*
X153761904Y-56388333D01*
X153714285Y-56435952D01*
X155000000Y-56959761D02*
X154904761Y-57007380D01*
X154714285Y-57007380D01*
X154619047Y-56959761D01*
X154571428Y-56864523D01*
X154571428Y-56483571D01*
X154619047Y-56388333D01*
X154714285Y-56340714D01*
X154904761Y-56340714D01*
X155000000Y-56388333D01*
X155047619Y-56483571D01*
X155047619Y-56578809D01*
X154571428Y-56674047D01*
X155476190Y-56340714D02*
X155476190Y-57007380D01*
X155476190Y-56435952D02*
X155523809Y-56388333D01*
X155619047Y-56340714D01*
X155761904Y-56340714D01*
X155857142Y-56388333D01*
X155904761Y-56483571D01*
X155904761Y-57007380D01*
D12*
X117602380Y-55404761D02*
X118269047Y-57404761D01*
X118935714Y-55404761D01*
X119507142Y-55595238D02*
X119602380Y-55500000D01*
X119792857Y-55404761D01*
X120269047Y-55404761D01*
X120459523Y-55500000D01*
X120554761Y-55595238D01*
X120650000Y-55785714D01*
X120650000Y-55976190D01*
X120554761Y-56261904D01*
X119411904Y-57404761D01*
X120650000Y-57404761D01*
X121507142Y-57214285D02*
X121602380Y-57309523D01*
X121507142Y-57404761D01*
X121411904Y-57309523D01*
X121507142Y-57214285D01*
X121507142Y-57404761D01*
X123507142Y-57404761D02*
X122364285Y-57404761D01*
X122935714Y-57404761D02*
X122935714Y-55404761D01*
X122745238Y-55690476D01*
X122554761Y-55880952D01*
X122364285Y-55976190D01*
X118715714Y-54054285D02*
X118620476Y-54149523D01*
X118334761Y-54244761D01*
X118144285Y-54244761D01*
X117858571Y-54149523D01*
X117668095Y-53959047D01*
X117572857Y-53768571D01*
X117477619Y-53387619D01*
X117477619Y-53101904D01*
X117572857Y-52720952D01*
X117668095Y-52530476D01*
X117858571Y-52340000D01*
X118144285Y-52244761D01*
X118334761Y-52244761D01*
X118620476Y-52340000D01*
X118715714Y-52435238D01*
X119572857Y-53197142D02*
X120239523Y-53197142D01*
X120525238Y-54244761D02*
X119572857Y-54244761D01*
X119572857Y-52244761D01*
X120525238Y-52244761D01*
X121096666Y-52244761D02*
X122239523Y-52244761D01*
X121668095Y-54244761D02*
X121668095Y-52244761D01*
X122906190Y-52244761D02*
X122906190Y-53863809D01*
X123001428Y-54054285D01*
X123096666Y-54149523D01*
X123287142Y-54244761D01*
X123668095Y-54244761D01*
X123858571Y-54149523D01*
X123953809Y-54054285D01*
X124049047Y-53863809D01*
X124049047Y-52244761D01*
X124906190Y-54149523D02*
X125191904Y-54244761D01*
X125668095Y-54244761D01*
X125858571Y-54149523D01*
X125953809Y-54054285D01*
X126049047Y-53863809D01*
X126049047Y-53673333D01*
X125953809Y-53482857D01*
X125858571Y-53387619D01*
X125668095Y-53292380D01*
X125287142Y-53197142D01*
X125096666Y-53101904D01*
X125001428Y-53006666D01*
X124906190Y-52816190D01*
X124906190Y-52625714D01*
X125001428Y-52435238D01*
X125096666Y-52340000D01*
X125287142Y-52244761D01*
X125763333Y-52244761D01*
X126049047Y-52340000D01*
X128429999Y-54244761D02*
X128429999Y-52244761D01*
X129096666Y-53673333D01*
X129763333Y-52244761D01*
X129763333Y-54244761D01*
X130715714Y-54244761D02*
X130715714Y-52244761D01*
X131858571Y-54244761D02*
X131001428Y-53101904D01*
X131858571Y-52244761D02*
X130715714Y-53387619D01*
X132525238Y-52244761D02*
X133763333Y-52244761D01*
X133096666Y-53006666D01*
X133382380Y-53006666D01*
X133572857Y-53101904D01*
X133668095Y-53197142D01*
X133763333Y-53387619D01*
X133763333Y-53863809D01*
X133668095Y-54054285D01*
X133572857Y-54149523D01*
X133382380Y-54244761D01*
X132810952Y-54244761D01*
X132620476Y-54149523D01*
X132525238Y-54054285D01*
X136049047Y-53673333D02*
X137001428Y-53673333D01*
X135858571Y-54244761D02*
X136525238Y-52244761D01*
X137191904Y-54244761D01*
X137858571Y-54244761D02*
X137858571Y-52244761D01*
X138334761Y-52244761D01*
X138620476Y-52340000D01*
X138810952Y-52530476D01*
X138906190Y-52720952D01*
X139001428Y-53101904D01*
X139001428Y-53387619D01*
X138906190Y-53768571D01*
X138810952Y-53959047D01*
X138620476Y-54149523D01*
X138334761Y-54244761D01*
X137858571Y-54244761D01*
X139763333Y-53673333D02*
X140715714Y-53673333D01*
X139572857Y-54244761D02*
X140239523Y-52244761D01*
X140906190Y-54244761D01*
X141572857Y-54244761D02*
X141572857Y-52244761D01*
X142334761Y-52244761D01*
X142525238Y-52340000D01*
X142620476Y-52435238D01*
X142715714Y-52625714D01*
X142715714Y-52911428D01*
X142620476Y-53101904D01*
X142525238Y-53197142D01*
X142334761Y-53292380D01*
X141572857Y-53292380D01*
X143287142Y-52244761D02*
X144429999Y-52244761D01*
X143858571Y-54244761D02*
X143858571Y-52244761D01*
X145096666Y-53197142D02*
X145763333Y-53197142D01*
X146049047Y-54244761D02*
X145096666Y-54244761D01*
X145096666Y-52244761D01*
X146049047Y-52244761D01*
X148049047Y-54244761D02*
X147382380Y-53292380D01*
X146906190Y-54244761D02*
X146906190Y-52244761D01*
X147668095Y-52244761D01*
X147858571Y-52340000D01*
X147953809Y-52435238D01*
X148049047Y-52625714D01*
X148049047Y-52911428D01*
X147953809Y-53101904D01*
X147858571Y-53197142D01*
X147668095Y-53292380D01*
X146906190Y-53292380D01*
X151096666Y-53197142D02*
X151382380Y-53292380D01*
X151477619Y-53387619D01*
X151572857Y-53578095D01*
X151572857Y-53863809D01*
X151477619Y-54054285D01*
X151382380Y-54149523D01*
X151191904Y-54244761D01*
X150429999Y-54244761D01*
X150429999Y-52244761D01*
X151096666Y-52244761D01*
X151287142Y-52340000D01*
X151382380Y-52435238D01*
X151477619Y-52625714D01*
X151477619Y-52816190D01*
X151382380Y-53006666D01*
X151287142Y-53101904D01*
X151096666Y-53197142D01*
X150429999Y-53197142D01*
X152810952Y-52244761D02*
X153191904Y-52244761D01*
X153382380Y-52340000D01*
X153572857Y-52530476D01*
X153668095Y-52911428D01*
X153668095Y-53578095D01*
X153572857Y-53959047D01*
X153382380Y-54149523D01*
X153191904Y-54244761D01*
X152810952Y-54244761D01*
X152620476Y-54149523D01*
X152429999Y-53959047D01*
X152334761Y-53578095D01*
X152334761Y-52911428D01*
X152429999Y-52530476D01*
X152620476Y-52340000D01*
X152810952Y-52244761D01*
X154429999Y-53673333D02*
X155382380Y-53673333D01*
X154239523Y-54244761D02*
X154906190Y-52244761D01*
X155572857Y-54244761D01*
X157382380Y-54244761D02*
X156715714Y-53292380D01*
X156239523Y-54244761D02*
X156239523Y-52244761D01*
X157001428Y-52244761D01*
X157191904Y-52340000D01*
X157287142Y-52435238D01*
X157382380Y-52625714D01*
X157382380Y-52911428D01*
X157287142Y-53101904D01*
X157191904Y-53197142D01*
X157001428Y-53292380D01*
X156239523Y-53292380D01*
X158239523Y-54244761D02*
X158239523Y-52244761D01*
X158715714Y-52244761D01*
X159001428Y-52340000D01*
X159191904Y-52530476D01*
X159287142Y-52720952D01*
X159382380Y-53101904D01*
X159382380Y-53387619D01*
X159287142Y-53768571D01*
X159191904Y-53959047D01*
X159001428Y-54149523D01*
X158715714Y-54244761D01*
X158239523Y-54244761D01*
D13*
%TO.C,J7*%
X165710000Y-53290000D02*
X174830000Y-53290000D01*
X174830000Y-53290000D02*
X174830000Y-81490000D01*
X174830000Y-81490000D02*
X165710000Y-81490000D01*
X165710000Y-81490000D02*
X165710000Y-53290000D01*
X165710000Y-65340000D02*
X167020000Y-65340000D01*
X167020000Y-65340000D02*
X167020000Y-54590000D01*
X167020000Y-54590000D02*
X173520000Y-54590000D01*
X173520000Y-54590000D02*
X173520000Y-80190000D01*
X173520000Y-80190000D02*
X167020000Y-80190000D01*
X167020000Y-80190000D02*
X167020000Y-69440000D01*
X167020000Y-69440000D02*
X167020000Y-69440000D01*
X167020000Y-69440000D02*
X165710000Y-69440000D01*
X165320000Y-58500000D02*
X164320000Y-58000000D01*
X164320000Y-58000000D02*
X164320000Y-59000000D01*
X164320000Y-59000000D02*
X165320000Y-58500000D01*
%TO.C,J2*%
X136940000Y-61540000D02*
X136940000Y-67510000D01*
X136940000Y-67510000D02*
X144560000Y-67510000D01*
X144560000Y-67510000D02*
X144560000Y-61540000D01*
X144560000Y-61540000D02*
X136940000Y-61540000D01*
X140250000Y-61550000D02*
X140250000Y-62300000D01*
X140250000Y-62300000D02*
X141250000Y-62300000D01*
X141250000Y-62300000D02*
X141250000Y-61550000D01*
X141250000Y-61550000D02*
X140250000Y-61550000D01*
X136950000Y-61550000D02*
X136950000Y-62300000D01*
X136950000Y-62300000D02*
X138750000Y-62300000D01*
X138750000Y-62300000D02*
X138750000Y-61550000D01*
X138750000Y-61550000D02*
X136950000Y-61550000D01*
X142750000Y-61550000D02*
X142750000Y-62300000D01*
X142750000Y-62300000D02*
X144550000Y-62300000D01*
X144550000Y-62300000D02*
X144550000Y-61550000D01*
X144550000Y-61550000D02*
X142750000Y-61550000D01*
X136950000Y-63800000D02*
X137700000Y-63800000D01*
X137700000Y-63800000D02*
X137700000Y-66750000D01*
X137700000Y-66750000D02*
X140750000Y-66750000D01*
X144550000Y-63800000D02*
X143800000Y-63800000D01*
X143800000Y-63800000D02*
X143800000Y-66750000D01*
X143800000Y-66750000D02*
X140750000Y-66750000D01*
X137900000Y-61250000D02*
X136650000Y-61250000D01*
X136650000Y-61250000D02*
X136650000Y-62500000D01*
D14*
%TO.C,G\u002A\u002A\u002A*%
G36*
X155589404Y-61853952D02*
G01*
X155670495Y-61854889D01*
X155745107Y-61856580D01*
X155815072Y-61859131D01*
X155882223Y-61862647D01*
X155948394Y-61867234D01*
X156015416Y-61872996D01*
X156085122Y-61880041D01*
X156159347Y-61888472D01*
X156208660Y-61894470D01*
X156443883Y-61928778D01*
X156676841Y-61972939D01*
X156907284Y-62026853D01*
X157134965Y-62090415D01*
X157359637Y-62163523D01*
X157581050Y-62246075D01*
X157798957Y-62337966D01*
X158013110Y-62439094D01*
X158223261Y-62549357D01*
X158429161Y-62668651D01*
X158630563Y-62796873D01*
X158827219Y-62933921D01*
X158967094Y-63039058D01*
X159042023Y-63098054D01*
X159112730Y-63155673D01*
X159180863Y-63213377D01*
X159248069Y-63272631D01*
X159315996Y-63334899D01*
X159386291Y-63401645D01*
X159460602Y-63474332D01*
X159490731Y-63504310D01*
X159583215Y-63598238D01*
X159668768Y-63688446D01*
X159748965Y-63776769D01*
X159825381Y-63865038D01*
X159899595Y-63955088D01*
X159973180Y-64048752D01*
X160047714Y-64147865D01*
X160069579Y-64177680D01*
X160205522Y-64372597D01*
X160332811Y-64572717D01*
X160451335Y-64777741D01*
X160560979Y-64987368D01*
X160661632Y-65201299D01*
X160753181Y-65419234D01*
X160835512Y-65640873D01*
X160908514Y-65865916D01*
X160972074Y-66094063D01*
X161026078Y-66325015D01*
X161070414Y-66558471D01*
X161104970Y-66794131D01*
X161125758Y-66986920D01*
X161130776Y-67044441D01*
X161134937Y-67097347D01*
X161138313Y-67147459D01*
X161140976Y-67196597D01*
X161142998Y-67246583D01*
X161144451Y-67299238D01*
X161145409Y-67356383D01*
X161145943Y-67419839D01*
X161146125Y-67491426D01*
X161146127Y-67500000D01*
X161145992Y-67571429D01*
X161145536Y-67634553D01*
X161144680Y-67691223D01*
X161143343Y-67743291D01*
X161141447Y-67792608D01*
X161138912Y-67841027D01*
X161135660Y-67890397D01*
X161131611Y-67942572D01*
X161126686Y-67999403D01*
X161123093Y-68038480D01*
X161096014Y-68273952D01*
X161059100Y-68507264D01*
X161012497Y-68738141D01*
X160956353Y-68966311D01*
X160890814Y-69191499D01*
X160816029Y-69413431D01*
X160732144Y-69631833D01*
X160639307Y-69846433D01*
X160537665Y-70056956D01*
X160427365Y-70263128D01*
X160308555Y-70464675D01*
X160181382Y-70661325D01*
X160045993Y-70852802D01*
X159902535Y-71038834D01*
X159751156Y-71219146D01*
X159592003Y-71393465D01*
X159425224Y-71561517D01*
X159250965Y-71723028D01*
X159069374Y-71877725D01*
X159048380Y-71894781D01*
X158860889Y-72039886D01*
X158667189Y-72177132D01*
X158467767Y-72306242D01*
X158263113Y-72426935D01*
X158053716Y-72538933D01*
X157840066Y-72641957D01*
X157622652Y-72735727D01*
X157468500Y-72795706D01*
X157245455Y-72873260D01*
X157019013Y-72941333D01*
X156789596Y-72999857D01*
X156557623Y-73048766D01*
X156323515Y-73087993D01*
X156087694Y-73117472D01*
X155850580Y-73137137D01*
X155612594Y-73146920D01*
X155374156Y-73146756D01*
X155268860Y-73143501D01*
X155029601Y-73128858D01*
X154792329Y-73104301D01*
X154557266Y-73069921D01*
X154324633Y-73025810D01*
X154094652Y-72972058D01*
X153867545Y-72908758D01*
X153643532Y-72836001D01*
X153422836Y-72753878D01*
X153205678Y-72662480D01*
X152992280Y-72561898D01*
X152782863Y-72452225D01*
X152577650Y-72333551D01*
X152376860Y-72205968D01*
X152180717Y-72069567D01*
X151989442Y-71924439D01*
X151803256Y-71770676D01*
X151685099Y-71666170D01*
X151653888Y-71637198D01*
X151617225Y-71602135D01*
X151576507Y-71562394D01*
X151533131Y-71519389D01*
X151488494Y-71474534D01*
X151443993Y-71429243D01*
X151401023Y-71384929D01*
X151360982Y-71343007D01*
X151325266Y-71304891D01*
X151295272Y-71271993D01*
X151291303Y-71267540D01*
X151134281Y-71083626D01*
X150986598Y-70895961D01*
X150848006Y-70704146D01*
X150718254Y-70507783D01*
X150597092Y-70306475D01*
X150484271Y-70099825D01*
X150379539Y-69887433D01*
X150282647Y-69668903D01*
X150275471Y-69651731D01*
X150195546Y-69447382D01*
X150123265Y-69237186D01*
X150058939Y-69022324D01*
X150002879Y-68803979D01*
X149955395Y-68583336D01*
X149916798Y-68361575D01*
X149894581Y-68201040D01*
X149884743Y-68117928D01*
X149876504Y-68040503D01*
X149869749Y-67966759D01*
X149864361Y-67894690D01*
X149860223Y-67822292D01*
X149857220Y-67747559D01*
X149855234Y-67668485D01*
X149854416Y-67604022D01*
X152604400Y-67604022D01*
X152604400Y-69348885D01*
X152615830Y-69356325D01*
X152622892Y-69360600D01*
X152638254Y-69369650D01*
X152661526Y-69383253D01*
X152692319Y-69401182D01*
X152730241Y-69423214D01*
X152774903Y-69449122D01*
X152825916Y-69478683D01*
X152882888Y-69511671D01*
X152945430Y-69547861D01*
X153013152Y-69587029D01*
X153085664Y-69628949D01*
X153162576Y-69673397D01*
X153243497Y-69720148D01*
X153328038Y-69768977D01*
X153415809Y-69819658D01*
X153506419Y-69871968D01*
X153599479Y-69925681D01*
X153694598Y-69980572D01*
X153791387Y-70036417D01*
X153889455Y-70092990D01*
X153988413Y-70150067D01*
X154087870Y-70207423D01*
X154187437Y-70264832D01*
X154286723Y-70322070D01*
X154385338Y-70378913D01*
X154482892Y-70435134D01*
X154578996Y-70490510D01*
X154673258Y-70544815D01*
X154765290Y-70597824D01*
X154854701Y-70649313D01*
X154941101Y-70699057D01*
X155024100Y-70746831D01*
X155103308Y-70792409D01*
X155178335Y-70835567D01*
X155248790Y-70876081D01*
X155314285Y-70913724D01*
X155374428Y-70948273D01*
X155428831Y-70979502D01*
X155477102Y-71007187D01*
X155518851Y-71031102D01*
X155553689Y-71051023D01*
X155581226Y-71066725D01*
X155601072Y-71077983D01*
X155612836Y-71084572D01*
X155616186Y-71086333D01*
X155621432Y-71083860D01*
X155634896Y-71076617D01*
X155656001Y-71064932D01*
X155684177Y-71049131D01*
X155718847Y-71029540D01*
X155759440Y-71006486D01*
X155805382Y-70980294D01*
X155856099Y-70951293D01*
X155911018Y-70919808D01*
X155969564Y-70886165D01*
X156031166Y-70850692D01*
X156095248Y-70813714D01*
X156103866Y-70808735D01*
X156168552Y-70771354D01*
X156231023Y-70735236D01*
X156290687Y-70700727D01*
X156346948Y-70668171D01*
X156399214Y-70637911D01*
X156446891Y-70610292D01*
X156489385Y-70585657D01*
X156526103Y-70564351D01*
X156556451Y-70546717D01*
X156579836Y-70533099D01*
X156595664Y-70523843D01*
X156603341Y-70519290D01*
X156603617Y-70519120D01*
X156622654Y-70507248D01*
X156625220Y-68554454D01*
X157122711Y-69241698D01*
X157192425Y-69337950D01*
X157256373Y-69426131D01*
X157314699Y-69506435D01*
X157367548Y-69579058D01*
X157415061Y-69644193D01*
X157457383Y-69702035D01*
X157494658Y-69752779D01*
X157527028Y-69796619D01*
X157554637Y-69833749D01*
X157577628Y-69864365D01*
X157596146Y-69888660D01*
X157610333Y-69906828D01*
X157620334Y-69919065D01*
X157626290Y-69925565D01*
X157628171Y-69926798D01*
X157633412Y-69924059D01*
X157646760Y-69916620D01*
X157667532Y-69904875D01*
X157695045Y-69889218D01*
X157728616Y-69870044D01*
X157767561Y-69847746D01*
X157811198Y-69822719D01*
X157858842Y-69795357D01*
X157909811Y-69766055D01*
X157963422Y-69735205D01*
X158018991Y-69703203D01*
X158075835Y-69670442D01*
X158133271Y-69637317D01*
X158190616Y-69604222D01*
X158247186Y-69571550D01*
X158302298Y-69539697D01*
X158355268Y-69509056D01*
X158405414Y-69480021D01*
X158452053Y-69452986D01*
X158494501Y-69428347D01*
X158532074Y-69406496D01*
X158564091Y-69387828D01*
X158589866Y-69372737D01*
X158608718Y-69361617D01*
X158619963Y-69354862D01*
X158622930Y-69352953D01*
X158623509Y-69350704D01*
X158624054Y-69344736D01*
X158624565Y-69334785D01*
X158625045Y-69320587D01*
X158625494Y-69301881D01*
X158625912Y-69278401D01*
X158626300Y-69249884D01*
X158626660Y-69216068D01*
X158626992Y-69176688D01*
X158627298Y-69131482D01*
X158627577Y-69080186D01*
X158627832Y-69022536D01*
X158628063Y-68958269D01*
X158628270Y-68887123D01*
X158628455Y-68808832D01*
X158628619Y-68723134D01*
X158628762Y-68629766D01*
X158628885Y-68528463D01*
X158628990Y-68418964D01*
X158629078Y-68301004D01*
X158629148Y-68174319D01*
X158629202Y-68038647D01*
X158629241Y-67893724D01*
X158629266Y-67739287D01*
X158629278Y-67575072D01*
X158629280Y-67497721D01*
X158629280Y-65647567D01*
X158126205Y-65356867D01*
X157623131Y-65066168D01*
X156619965Y-65645271D01*
X155616800Y-66224374D01*
X155118694Y-65936896D01*
X155053338Y-65899120D01*
X154990558Y-65862723D01*
X154930903Y-65828028D01*
X154874921Y-65795359D01*
X154823160Y-65765040D01*
X154776170Y-65737395D01*
X154734498Y-65712748D01*
X154698693Y-65691423D01*
X154669304Y-65673743D01*
X154646879Y-65660032D01*
X154631967Y-65650615D01*
X154625116Y-65645814D01*
X154624732Y-65645275D01*
X154629458Y-65642382D01*
X154642590Y-65634638D01*
X154663732Y-65622274D01*
X154692491Y-65605515D01*
X154728472Y-65584592D01*
X154771282Y-65559733D01*
X154820525Y-65531165D01*
X154875808Y-65499118D01*
X154936735Y-65463820D01*
X155002914Y-65425499D01*
X155073948Y-65384384D01*
X155149445Y-65340703D01*
X155229010Y-65294685D01*
X155312248Y-65246557D01*
X155398765Y-65196549D01*
X155488166Y-65144889D01*
X155580059Y-65091805D01*
X155621673Y-65067770D01*
X155714515Y-65014134D01*
X155805020Y-64961816D01*
X155892794Y-64911042D01*
X155977444Y-64862042D01*
X156058577Y-64815044D01*
X156135801Y-64770278D01*
X156208723Y-64727970D01*
X156276948Y-64688350D01*
X156340086Y-64651646D01*
X156397741Y-64618087D01*
X156449523Y-64587902D01*
X156495037Y-64561318D01*
X156533890Y-64538564D01*
X156565690Y-64519869D01*
X156590045Y-64505462D01*
X156606559Y-64495570D01*
X156614842Y-64490422D01*
X156615779Y-64489714D01*
X156611640Y-64486612D01*
X156599244Y-64478774D01*
X156579140Y-64466522D01*
X156551882Y-64450182D01*
X156518019Y-64430078D01*
X156478105Y-64406533D01*
X156432689Y-64379873D01*
X156382325Y-64350421D01*
X156327562Y-64318501D01*
X156268954Y-64284438D01*
X156207051Y-64248556D01*
X156142404Y-64211178D01*
X156116930Y-64196475D01*
X155616771Y-63907930D01*
X154113383Y-64775595D01*
X153998913Y-64841676D01*
X153886724Y-64906470D01*
X153777135Y-64969792D01*
X153670464Y-65031458D01*
X153567031Y-65091282D01*
X153467153Y-65149079D01*
X153371149Y-65204664D01*
X153279338Y-65257854D01*
X153192037Y-65308461D01*
X153109566Y-65356303D01*
X153032243Y-65401193D01*
X152960386Y-65442947D01*
X152894314Y-65481380D01*
X152834345Y-65516307D01*
X152780798Y-65547544D01*
X152733992Y-65574904D01*
X152694244Y-65598203D01*
X152661873Y-65617257D01*
X152637197Y-65631880D01*
X152620536Y-65641888D01*
X152612207Y-65647095D01*
X152611262Y-65647833D01*
X152615690Y-65650663D01*
X152628532Y-65658341D01*
X152649396Y-65670643D01*
X152677895Y-65687343D01*
X152713639Y-65708215D01*
X152756238Y-65733036D01*
X152805302Y-65761580D01*
X152860443Y-65793622D01*
X152921270Y-65828938D01*
X152987394Y-65867301D01*
X153058426Y-65908487D01*
X153133976Y-65952271D01*
X153213654Y-65998428D01*
X153297072Y-66046732D01*
X153383839Y-66096960D01*
X153473566Y-66148885D01*
X153565864Y-66202283D01*
X153660342Y-66256929D01*
X153756612Y-66312598D01*
X153854284Y-66369064D01*
X153952969Y-66426103D01*
X154052276Y-66483489D01*
X154151817Y-66540998D01*
X154251202Y-66598404D01*
X154350041Y-66655483D01*
X154447946Y-66712009D01*
X154544525Y-66767758D01*
X154639391Y-66822504D01*
X154732153Y-66876023D01*
X154822422Y-66928088D01*
X154909808Y-66978477D01*
X154993922Y-67026962D01*
X155074374Y-67073319D01*
X155150775Y-67117324D01*
X155222736Y-67158751D01*
X155289866Y-67197375D01*
X155351777Y-67232971D01*
X155408078Y-67265314D01*
X155458381Y-67294179D01*
X155502295Y-67319341D01*
X155539432Y-67340575D01*
X155569402Y-67357656D01*
X155591814Y-67370359D01*
X155606281Y-67378458D01*
X155612412Y-67381730D01*
X155612556Y-67381784D01*
X155618947Y-67379879D01*
X155633107Y-67373308D01*
X155654064Y-67362588D01*
X155680849Y-67348234D01*
X155712490Y-67330762D01*
X155748017Y-67310689D01*
X155770036Y-67298050D01*
X155894886Y-67225982D01*
X156019437Y-67154091D01*
X156143374Y-67082558D01*
X156266381Y-67011564D01*
X156388145Y-66941292D01*
X156508350Y-66871923D01*
X156626681Y-66803638D01*
X156742824Y-66736619D01*
X156856464Y-66671048D01*
X156967286Y-66607107D01*
X157074975Y-66544976D01*
X157179216Y-66484837D01*
X157279694Y-66426873D01*
X157376096Y-66371265D01*
X157468105Y-66318193D01*
X157555407Y-66267841D01*
X157637687Y-66220389D01*
X157714630Y-66176019D01*
X157785922Y-66134913D01*
X157851248Y-66097253D01*
X157910292Y-66063219D01*
X157962740Y-66032994D01*
X158008278Y-66006759D01*
X158046590Y-65984695D01*
X158077361Y-65966985D01*
X158100277Y-65953810D01*
X158115023Y-65945351D01*
X158121280Y-65941793D01*
X158144140Y-65929231D01*
X158126360Y-65945991D01*
X158119601Y-65952317D01*
X158106081Y-65964931D01*
X158086479Y-65983202D01*
X158061473Y-66006498D01*
X158031741Y-66034186D01*
X157997962Y-66065636D01*
X157960815Y-66100216D01*
X157920977Y-66137293D01*
X157879126Y-66176237D01*
X157866022Y-66188429D01*
X157623465Y-66414109D01*
X157622182Y-67412312D01*
X157620900Y-68410515D01*
X157120739Y-67721927D01*
X157066559Y-67647366D01*
X157013984Y-67575072D01*
X156963323Y-67505471D01*
X156914889Y-67438986D01*
X156868991Y-67376042D01*
X156825940Y-67317063D01*
X156786046Y-67262474D01*
X156749621Y-67212699D01*
X156716974Y-67168162D01*
X156688416Y-67129288D01*
X156664258Y-67096501D01*
X156644810Y-67070225D01*
X156630383Y-67050886D01*
X156621288Y-67038906D01*
X156617835Y-67034712D01*
X156617819Y-67034711D01*
X156613136Y-67037366D01*
X156600195Y-67044752D01*
X156579556Y-67056548D01*
X156551776Y-67072435D01*
X156517416Y-67092093D01*
X156477033Y-67115202D01*
X156431186Y-67141443D01*
X156380435Y-67170496D01*
X156325336Y-67202040D01*
X156266451Y-67235757D01*
X156204336Y-67271327D01*
X156139550Y-67308429D01*
X156115950Y-67321946D01*
X155616840Y-67607808D01*
X155616840Y-69101610D01*
X155616832Y-69224096D01*
X155616811Y-69343914D01*
X155616775Y-69460668D01*
X155616727Y-69573963D01*
X155616667Y-69683402D01*
X155616594Y-69788591D01*
X155616510Y-69889132D01*
X155616415Y-69984631D01*
X155616310Y-70074691D01*
X155616196Y-70158917D01*
X155616072Y-70236913D01*
X155615940Y-70308282D01*
X155615800Y-70372630D01*
X155615653Y-70429559D01*
X155615499Y-70478675D01*
X155615339Y-70519582D01*
X155615174Y-70551883D01*
X155615003Y-70575183D01*
X155614828Y-70589086D01*
X155614662Y-70593236D01*
X155613316Y-70588035D01*
X155610086Y-70573645D01*
X155605134Y-70550826D01*
X155598620Y-70520342D01*
X155590705Y-70482953D01*
X155581549Y-70439423D01*
X155571313Y-70390513D01*
X155560159Y-70336985D01*
X155548245Y-70279602D01*
X155535734Y-70219126D01*
X155532825Y-70205039D01*
X155520223Y-70144007D01*
X155508214Y-70085921D01*
X155496955Y-70031541D01*
X155486606Y-69981625D01*
X155477324Y-69936932D01*
X155469265Y-69898221D01*
X155462590Y-69866251D01*
X155457454Y-69841779D01*
X155454016Y-69825566D01*
X155452434Y-69818369D01*
X155452349Y-69818069D01*
X155447902Y-69815540D01*
X155434984Y-69808283D01*
X155413999Y-69796525D01*
X155385349Y-69780489D01*
X155349435Y-69760401D01*
X155306659Y-69736484D01*
X155257423Y-69708963D01*
X155202130Y-69678064D01*
X155141181Y-69644010D01*
X155074979Y-69607026D01*
X155003926Y-69567338D01*
X154928423Y-69525169D01*
X154848873Y-69480744D01*
X154765677Y-69434288D01*
X154679239Y-69386026D01*
X154589959Y-69336181D01*
X154498240Y-69284979D01*
X154481423Y-69275592D01*
X154389259Y-69224138D01*
X154299440Y-69173978D01*
X154212369Y-69125339D01*
X154128449Y-69078446D01*
X154048085Y-69033525D01*
X153971679Y-68990802D01*
X153899636Y-68950504D01*
X153832359Y-68912857D01*
X153770252Y-68878085D01*
X153713718Y-68846416D01*
X153663161Y-68818075D01*
X153618985Y-68793288D01*
X153581593Y-68772282D01*
X153551388Y-68755282D01*
X153528776Y-68742514D01*
X153514158Y-68734204D01*
X153507940Y-68730578D01*
X153507745Y-68730442D01*
X153507504Y-68725154D01*
X153507438Y-68710483D01*
X153507536Y-68687208D01*
X153507786Y-68656103D01*
X153508174Y-68617945D01*
X153508688Y-68573511D01*
X153509316Y-68523576D01*
X153510046Y-68468919D01*
X153510865Y-68410313D01*
X153511760Y-68348537D01*
X153512720Y-68284366D01*
X153513731Y-68218577D01*
X153514782Y-68151947D01*
X153515860Y-68085250D01*
X153516953Y-68019265D01*
X153518047Y-67954767D01*
X153519131Y-67892532D01*
X153520193Y-67833338D01*
X153521219Y-67777959D01*
X153522198Y-67727174D01*
X153523117Y-67681757D01*
X153523964Y-67642487D01*
X153524725Y-67610137D01*
X153525390Y-67585486D01*
X153525945Y-67569310D01*
X153526377Y-67562385D01*
X153526432Y-67562190D01*
X153530832Y-67564601D01*
X153543586Y-67571932D01*
X153564295Y-67583948D01*
X153592559Y-67600414D01*
X153627977Y-67621095D01*
X153670149Y-67645757D01*
X153718673Y-67674165D01*
X153773151Y-67706084D01*
X153833182Y-67741279D01*
X153898364Y-67779517D01*
X153968299Y-67820561D01*
X154042585Y-67864178D01*
X154120823Y-67910132D01*
X154202611Y-67958190D01*
X154287550Y-68008115D01*
X154375239Y-68059674D01*
X154465278Y-68112631D01*
X154467974Y-68114217D01*
X155408602Y-68667553D01*
X155406020Y-67502779D01*
X154006922Y-66680969D01*
X153896763Y-66616267D01*
X153788869Y-66552900D01*
X153683569Y-66491064D01*
X153581191Y-66430949D01*
X153482064Y-66372749D01*
X153386517Y-66316657D01*
X153294878Y-66262865D01*
X153207475Y-66211567D01*
X153124639Y-66162955D01*
X153046696Y-66117222D01*
X152973976Y-66074560D01*
X152906808Y-66035163D01*
X152845519Y-65999224D01*
X152790439Y-65966934D01*
X152741896Y-65938487D01*
X152700220Y-65914076D01*
X152665737Y-65893894D01*
X152638778Y-65878132D01*
X152619671Y-65866985D01*
X152608744Y-65860645D01*
X152606112Y-65859159D01*
X152605982Y-65864178D01*
X152605855Y-65878990D01*
X152605730Y-65903228D01*
X152605609Y-65936525D01*
X152605491Y-65978514D01*
X152605378Y-66028828D01*
X152605268Y-66087101D01*
X152605164Y-66152965D01*
X152605065Y-66226052D01*
X152604971Y-66305997D01*
X152604883Y-66392433D01*
X152604801Y-66484991D01*
X152604725Y-66583306D01*
X152604657Y-66687011D01*
X152604596Y-66795737D01*
X152604542Y-66909120D01*
X152604496Y-67026790D01*
X152604459Y-67148382D01*
X152604431Y-67273529D01*
X152604411Y-67401863D01*
X152604401Y-67533017D01*
X152604400Y-67604022D01*
X149854416Y-67604022D01*
X149854149Y-67583066D01*
X149853846Y-67500000D01*
X149854216Y-67405375D01*
X149855449Y-67318826D01*
X149857670Y-67238295D01*
X149860999Y-67161727D01*
X149865562Y-67087063D01*
X149871481Y-67012247D01*
X149878879Y-66935221D01*
X149887880Y-66853929D01*
X149896981Y-66779150D01*
X149931593Y-66544772D01*
X149976104Y-66312411D01*
X150030402Y-66082355D01*
X150094373Y-65854891D01*
X150167905Y-65630305D01*
X150250886Y-65408887D01*
X150343202Y-65190922D01*
X150444742Y-64976699D01*
X150555392Y-64766504D01*
X150675039Y-64560626D01*
X150803572Y-64359350D01*
X150900930Y-64218320D01*
X150968007Y-64126616D01*
X151041072Y-64031147D01*
X151118119Y-63934419D01*
X151197145Y-63838939D01*
X151276144Y-63747216D01*
X151290791Y-63730640D01*
X151314633Y-63704442D01*
X151344707Y-63672463D01*
X151379861Y-63635852D01*
X151418942Y-63595756D01*
X151460796Y-63553324D01*
X151504271Y-63509705D01*
X151548215Y-63466046D01*
X151591473Y-63423496D01*
X151632894Y-63383205D01*
X151671324Y-63346319D01*
X151705611Y-63313987D01*
X151734601Y-63287359D01*
X151745880Y-63277307D01*
X151920726Y-63128944D01*
X152097577Y-62989865D01*
X152277618Y-62859230D01*
X152462039Y-62736196D01*
X152652028Y-62619920D01*
X152761880Y-62557118D01*
X152968268Y-62447770D01*
X153179733Y-62347069D01*
X153395748Y-62255187D01*
X153615784Y-62172296D01*
X153839314Y-62098568D01*
X154065810Y-62034176D01*
X154294746Y-61979293D01*
X154525592Y-61934089D01*
X154757822Y-61898739D01*
X154791340Y-61894470D01*
X154869303Y-61885122D01*
X154941608Y-61877226D01*
X155010086Y-61870677D01*
X155076571Y-61865371D01*
X155142896Y-61861201D01*
X155210894Y-61858061D01*
X155282397Y-61855847D01*
X155359238Y-61854452D01*
X155443250Y-61853772D01*
X155500000Y-61853662D01*
X155589404Y-61853952D01*
G37*
X155589404Y-61853952D02*
X155670495Y-61854889D01*
X155745107Y-61856580D01*
X155815072Y-61859131D01*
X155882223Y-61862647D01*
X155948394Y-61867234D01*
X156015416Y-61872996D01*
X156085122Y-61880041D01*
X156159347Y-61888472D01*
X156208660Y-61894470D01*
X156443883Y-61928778D01*
X156676841Y-61972939D01*
X156907284Y-62026853D01*
X157134965Y-62090415D01*
X157359637Y-62163523D01*
X157581050Y-62246075D01*
X157798957Y-62337966D01*
X158013110Y-62439094D01*
X158223261Y-62549357D01*
X158429161Y-62668651D01*
X158630563Y-62796873D01*
X158827219Y-62933921D01*
X158967094Y-63039058D01*
X159042023Y-63098054D01*
X159112730Y-63155673D01*
X159180863Y-63213377D01*
X159248069Y-63272631D01*
X159315996Y-63334899D01*
X159386291Y-63401645D01*
X159460602Y-63474332D01*
X159490731Y-63504310D01*
X159583215Y-63598238D01*
X159668768Y-63688446D01*
X159748965Y-63776769D01*
X159825381Y-63865038D01*
X159899595Y-63955088D01*
X159973180Y-64048752D01*
X160047714Y-64147865D01*
X160069579Y-64177680D01*
X160205522Y-64372597D01*
X160332811Y-64572717D01*
X160451335Y-64777741D01*
X160560979Y-64987368D01*
X160661632Y-65201299D01*
X160753181Y-65419234D01*
X160835512Y-65640873D01*
X160908514Y-65865916D01*
X160972074Y-66094063D01*
X161026078Y-66325015D01*
X161070414Y-66558471D01*
X161104970Y-66794131D01*
X161125758Y-66986920D01*
X161130776Y-67044441D01*
X161134937Y-67097347D01*
X161138313Y-67147459D01*
X161140976Y-67196597D01*
X161142998Y-67246583D01*
X161144451Y-67299238D01*
X161145409Y-67356383D01*
X161145943Y-67419839D01*
X161146125Y-67491426D01*
X161146127Y-67500000D01*
X161145992Y-67571429D01*
X161145536Y-67634553D01*
X161144680Y-67691223D01*
X161143343Y-67743291D01*
X161141447Y-67792608D01*
X161138912Y-67841027D01*
X161135660Y-67890397D01*
X161131611Y-67942572D01*
X161126686Y-67999403D01*
X161123093Y-68038480D01*
X161096014Y-68273952D01*
X161059100Y-68507264D01*
X161012497Y-68738141D01*
X160956353Y-68966311D01*
X160890814Y-69191499D01*
X160816029Y-69413431D01*
X160732144Y-69631833D01*
X160639307Y-69846433D01*
X160537665Y-70056956D01*
X160427365Y-70263128D01*
X160308555Y-70464675D01*
X160181382Y-70661325D01*
X160045993Y-70852802D01*
X159902535Y-71038834D01*
X159751156Y-71219146D01*
X159592003Y-71393465D01*
X159425224Y-71561517D01*
X159250965Y-71723028D01*
X159069374Y-71877725D01*
X159048380Y-71894781D01*
X158860889Y-72039886D01*
X158667189Y-72177132D01*
X158467767Y-72306242D01*
X158263113Y-72426935D01*
X158053716Y-72538933D01*
X157840066Y-72641957D01*
X157622652Y-72735727D01*
X157468500Y-72795706D01*
X157245455Y-72873260D01*
X157019013Y-72941333D01*
X156789596Y-72999857D01*
X156557623Y-73048766D01*
X156323515Y-73087993D01*
X156087694Y-73117472D01*
X155850580Y-73137137D01*
X155612594Y-73146920D01*
X155374156Y-73146756D01*
X155268860Y-73143501D01*
X155029601Y-73128858D01*
X154792329Y-73104301D01*
X154557266Y-73069921D01*
X154324633Y-73025810D01*
X154094652Y-72972058D01*
X153867545Y-72908758D01*
X153643532Y-72836001D01*
X153422836Y-72753878D01*
X153205678Y-72662480D01*
X152992280Y-72561898D01*
X152782863Y-72452225D01*
X152577650Y-72333551D01*
X152376860Y-72205968D01*
X152180717Y-72069567D01*
X151989442Y-71924439D01*
X151803256Y-71770676D01*
X151685099Y-71666170D01*
X151653888Y-71637198D01*
X151617225Y-71602135D01*
X151576507Y-71562394D01*
X151533131Y-71519389D01*
X151488494Y-71474534D01*
X151443993Y-71429243D01*
X151401023Y-71384929D01*
X151360982Y-71343007D01*
X151325266Y-71304891D01*
X151295272Y-71271993D01*
X151291303Y-71267540D01*
X151134281Y-71083626D01*
X150986598Y-70895961D01*
X150848006Y-70704146D01*
X150718254Y-70507783D01*
X150597092Y-70306475D01*
X150484271Y-70099825D01*
X150379539Y-69887433D01*
X150282647Y-69668903D01*
X150275471Y-69651731D01*
X150195546Y-69447382D01*
X150123265Y-69237186D01*
X150058939Y-69022324D01*
X150002879Y-68803979D01*
X149955395Y-68583336D01*
X149916798Y-68361575D01*
X149894581Y-68201040D01*
X149884743Y-68117928D01*
X149876504Y-68040503D01*
X149869749Y-67966759D01*
X149864361Y-67894690D01*
X149860223Y-67822292D01*
X149857220Y-67747559D01*
X149855234Y-67668485D01*
X149854416Y-67604022D01*
X152604400Y-67604022D01*
X152604400Y-69348885D01*
X152615830Y-69356325D01*
X152622892Y-69360600D01*
X152638254Y-69369650D01*
X152661526Y-69383253D01*
X152692319Y-69401182D01*
X152730241Y-69423214D01*
X152774903Y-69449122D01*
X152825916Y-69478683D01*
X152882888Y-69511671D01*
X152945430Y-69547861D01*
X153013152Y-69587029D01*
X153085664Y-69628949D01*
X153162576Y-69673397D01*
X153243497Y-69720148D01*
X153328038Y-69768977D01*
X153415809Y-69819658D01*
X153506419Y-69871968D01*
X153599479Y-69925681D01*
X153694598Y-69980572D01*
X153791387Y-70036417D01*
X153889455Y-70092990D01*
X153988413Y-70150067D01*
X154087870Y-70207423D01*
X154187437Y-70264832D01*
X154286723Y-70322070D01*
X154385338Y-70378913D01*
X154482892Y-70435134D01*
X154578996Y-70490510D01*
X154673258Y-70544815D01*
X154765290Y-70597824D01*
X154854701Y-70649313D01*
X154941101Y-70699057D01*
X155024100Y-70746831D01*
X155103308Y-70792409D01*
X155178335Y-70835567D01*
X155248790Y-70876081D01*
X155314285Y-70913724D01*
X155374428Y-70948273D01*
X155428831Y-70979502D01*
X155477102Y-71007187D01*
X155518851Y-71031102D01*
X155553689Y-71051023D01*
X155581226Y-71066725D01*
X155601072Y-71077983D01*
X155612836Y-71084572D01*
X155616186Y-71086333D01*
X155621432Y-71083860D01*
X155634896Y-71076617D01*
X155656001Y-71064932D01*
X155684177Y-71049131D01*
X155718847Y-71029540D01*
X155759440Y-71006486D01*
X155805382Y-70980294D01*
X155856099Y-70951293D01*
X155911018Y-70919808D01*
X155969564Y-70886165D01*
X156031166Y-70850692D01*
X156095248Y-70813714D01*
X156103866Y-70808735D01*
X156168552Y-70771354D01*
X156231023Y-70735236D01*
X156290687Y-70700727D01*
X156346948Y-70668171D01*
X156399214Y-70637911D01*
X156446891Y-70610292D01*
X156489385Y-70585657D01*
X156526103Y-70564351D01*
X156556451Y-70546717D01*
X156579836Y-70533099D01*
X156595664Y-70523843D01*
X156603341Y-70519290D01*
X156603617Y-70519120D01*
X156622654Y-70507248D01*
X156625220Y-68554454D01*
X157122711Y-69241698D01*
X157192425Y-69337950D01*
X157256373Y-69426131D01*
X157314699Y-69506435D01*
X157367548Y-69579058D01*
X157415061Y-69644193D01*
X157457383Y-69702035D01*
X157494658Y-69752779D01*
X157527028Y-69796619D01*
X157554637Y-69833749D01*
X157577628Y-69864365D01*
X157596146Y-69888660D01*
X157610333Y-69906828D01*
X157620334Y-69919065D01*
X157626290Y-69925565D01*
X157628171Y-69926798D01*
X157633412Y-69924059D01*
X157646760Y-69916620D01*
X157667532Y-69904875D01*
X157695045Y-69889218D01*
X157728616Y-69870044D01*
X157767561Y-69847746D01*
X157811198Y-69822719D01*
X157858842Y-69795357D01*
X157909811Y-69766055D01*
X157963422Y-69735205D01*
X158018991Y-69703203D01*
X158075835Y-69670442D01*
X158133271Y-69637317D01*
X158190616Y-69604222D01*
X158247186Y-69571550D01*
X158302298Y-69539697D01*
X158355268Y-69509056D01*
X158405414Y-69480021D01*
X158452053Y-69452986D01*
X158494501Y-69428347D01*
X158532074Y-69406496D01*
X158564091Y-69387828D01*
X158589866Y-69372737D01*
X158608718Y-69361617D01*
X158619963Y-69354862D01*
X158622930Y-69352953D01*
X158623509Y-69350704D01*
X158624054Y-69344736D01*
X158624565Y-69334785D01*
X158625045Y-69320587D01*
X158625494Y-69301881D01*
X158625912Y-69278401D01*
X158626300Y-69249884D01*
X158626660Y-69216068D01*
X158626992Y-69176688D01*
X158627298Y-69131482D01*
X158627577Y-69080186D01*
X158627832Y-69022536D01*
X158628063Y-68958269D01*
X158628270Y-68887123D01*
X158628455Y-68808832D01*
X158628619Y-68723134D01*
X158628762Y-68629766D01*
X158628885Y-68528463D01*
X158628990Y-68418964D01*
X158629078Y-68301004D01*
X158629148Y-68174319D01*
X158629202Y-68038647D01*
X158629241Y-67893724D01*
X158629266Y-67739287D01*
X158629278Y-67575072D01*
X158629280Y-67497721D01*
X158629280Y-65647567D01*
X158126205Y-65356867D01*
X157623131Y-65066168D01*
X156619965Y-65645271D01*
X155616800Y-66224374D01*
X155118694Y-65936896D01*
X155053338Y-65899120D01*
X154990558Y-65862723D01*
X154930903Y-65828028D01*
X154874921Y-65795359D01*
X154823160Y-65765040D01*
X154776170Y-65737395D01*
X154734498Y-65712748D01*
X154698693Y-65691423D01*
X154669304Y-65673743D01*
X154646879Y-65660032D01*
X154631967Y-65650615D01*
X154625116Y-65645814D01*
X154624732Y-65645275D01*
X154629458Y-65642382D01*
X154642590Y-65634638D01*
X154663732Y-65622274D01*
X154692491Y-65605515D01*
X154728472Y-65584592D01*
X154771282Y-65559733D01*
X154820525Y-65531165D01*
X154875808Y-65499118D01*
X154936735Y-65463820D01*
X155002914Y-65425499D01*
X155073948Y-65384384D01*
X155149445Y-65340703D01*
X155229010Y-65294685D01*
X155312248Y-65246557D01*
X155398765Y-65196549D01*
X155488166Y-65144889D01*
X155580059Y-65091805D01*
X155621673Y-65067770D01*
X155714515Y-65014134D01*
X155805020Y-64961816D01*
X155892794Y-64911042D01*
X155977444Y-64862042D01*
X156058577Y-64815044D01*
X156135801Y-64770278D01*
X156208723Y-64727970D01*
X156276948Y-64688350D01*
X156340086Y-64651646D01*
X156397741Y-64618087D01*
X156449523Y-64587902D01*
X156495037Y-64561318D01*
X156533890Y-64538564D01*
X156565690Y-64519869D01*
X156590045Y-64505462D01*
X156606559Y-64495570D01*
X156614842Y-64490422D01*
X156615779Y-64489714D01*
X156611640Y-64486612D01*
X156599244Y-64478774D01*
X156579140Y-64466522D01*
X156551882Y-64450182D01*
X156518019Y-64430078D01*
X156478105Y-64406533D01*
X156432689Y-64379873D01*
X156382325Y-64350421D01*
X156327562Y-64318501D01*
X156268954Y-64284438D01*
X156207051Y-64248556D01*
X156142404Y-64211178D01*
X156116930Y-64196475D01*
X155616771Y-63907930D01*
X154113383Y-64775595D01*
X153998913Y-64841676D01*
X153886724Y-64906470D01*
X153777135Y-64969792D01*
X153670464Y-65031458D01*
X153567031Y-65091282D01*
X153467153Y-65149079D01*
X153371149Y-65204664D01*
X153279338Y-65257854D01*
X153192037Y-65308461D01*
X153109566Y-65356303D01*
X153032243Y-65401193D01*
X152960386Y-65442947D01*
X152894314Y-65481380D01*
X152834345Y-65516307D01*
X152780798Y-65547544D01*
X152733992Y-65574904D01*
X152694244Y-65598203D01*
X152661873Y-65617257D01*
X152637197Y-65631880D01*
X152620536Y-65641888D01*
X152612207Y-65647095D01*
X152611262Y-65647833D01*
X152615690Y-65650663D01*
X152628532Y-65658341D01*
X152649396Y-65670643D01*
X152677895Y-65687343D01*
X152713639Y-65708215D01*
X152756238Y-65733036D01*
X152805302Y-65761580D01*
X152860443Y-65793622D01*
X152921270Y-65828938D01*
X152987394Y-65867301D01*
X153058426Y-65908487D01*
X153133976Y-65952271D01*
X153213654Y-65998428D01*
X153297072Y-66046732D01*
X153383839Y-66096960D01*
X153473566Y-66148885D01*
X153565864Y-66202283D01*
X153660342Y-66256929D01*
X153756612Y-66312598D01*
X153854284Y-66369064D01*
X153952969Y-66426103D01*
X154052276Y-66483489D01*
X154151817Y-66540998D01*
X154251202Y-66598404D01*
X154350041Y-66655483D01*
X154447946Y-66712009D01*
X154544525Y-66767758D01*
X154639391Y-66822504D01*
X154732153Y-66876023D01*
X154822422Y-66928088D01*
X154909808Y-66978477D01*
X154993922Y-67026962D01*
X155074374Y-67073319D01*
X155150775Y-67117324D01*
X155222736Y-67158751D01*
X155289866Y-67197375D01*
X155351777Y-67232971D01*
X155408078Y-67265314D01*
X155458381Y-67294179D01*
X155502295Y-67319341D01*
X155539432Y-67340575D01*
X155569402Y-67357656D01*
X155591814Y-67370359D01*
X155606281Y-67378458D01*
X155612412Y-67381730D01*
X155612556Y-67381784D01*
X155618947Y-67379879D01*
X155633107Y-67373308D01*
X155654064Y-67362588D01*
X155680849Y-67348234D01*
X155712490Y-67330762D01*
X155748017Y-67310689D01*
X155770036Y-67298050D01*
X155894886Y-67225982D01*
X156019437Y-67154091D01*
X156143374Y-67082558D01*
X156266381Y-67011564D01*
X156388145Y-66941292D01*
X156508350Y-66871923D01*
X156626681Y-66803638D01*
X156742824Y-66736619D01*
X156856464Y-66671048D01*
X156967286Y-66607107D01*
X157074975Y-66544976D01*
X157179216Y-66484837D01*
X157279694Y-66426873D01*
X157376096Y-66371265D01*
X157468105Y-66318193D01*
X157555407Y-66267841D01*
X157637687Y-66220389D01*
X157714630Y-66176019D01*
X157785922Y-66134913D01*
X157851248Y-66097253D01*
X157910292Y-66063219D01*
X157962740Y-66032994D01*
X158008278Y-66006759D01*
X158046590Y-65984695D01*
X158077361Y-65966985D01*
X158100277Y-65953810D01*
X158115023Y-65945351D01*
X158121280Y-65941793D01*
X158144140Y-65929231D01*
X158126360Y-65945991D01*
X158119601Y-65952317D01*
X158106081Y-65964931D01*
X158086479Y-65983202D01*
X158061473Y-66006498D01*
X158031741Y-66034186D01*
X157997962Y-66065636D01*
X157960815Y-66100216D01*
X157920977Y-66137293D01*
X157879126Y-66176237D01*
X157866022Y-66188429D01*
X157623465Y-66414109D01*
X157622182Y-67412312D01*
X157620900Y-68410515D01*
X157120739Y-67721927D01*
X157066559Y-67647366D01*
X157013984Y-67575072D01*
X156963323Y-67505471D01*
X156914889Y-67438986D01*
X156868991Y-67376042D01*
X156825940Y-67317063D01*
X156786046Y-67262474D01*
X156749621Y-67212699D01*
X156716974Y-67168162D01*
X156688416Y-67129288D01*
X156664258Y-67096501D01*
X156644810Y-67070225D01*
X156630383Y-67050886D01*
X156621288Y-67038906D01*
X156617835Y-67034712D01*
X156617819Y-67034711D01*
X156613136Y-67037366D01*
X156600195Y-67044752D01*
X156579556Y-67056548D01*
X156551776Y-67072435D01*
X156517416Y-67092093D01*
X156477033Y-67115202D01*
X156431186Y-67141443D01*
X156380435Y-67170496D01*
X156325336Y-67202040D01*
X156266451Y-67235757D01*
X156204336Y-67271327D01*
X156139550Y-67308429D01*
X156115950Y-67321946D01*
X155616840Y-67607808D01*
X155616840Y-69101610D01*
X155616832Y-69224096D01*
X155616811Y-69343914D01*
X155616775Y-69460668D01*
X155616727Y-69573963D01*
X155616667Y-69683402D01*
X155616594Y-69788591D01*
X155616510Y-69889132D01*
X155616415Y-69984631D01*
X155616310Y-70074691D01*
X155616196Y-70158917D01*
X155616072Y-70236913D01*
X155615940Y-70308282D01*
X155615800Y-70372630D01*
X155615653Y-70429559D01*
X155615499Y-70478675D01*
X155615339Y-70519582D01*
X155615174Y-70551883D01*
X155615003Y-70575183D01*
X155614828Y-70589086D01*
X155614662Y-70593236D01*
X155613316Y-70588035D01*
X155610086Y-70573645D01*
X155605134Y-70550826D01*
X155598620Y-70520342D01*
X155590705Y-70482953D01*
X155581549Y-70439423D01*
X155571313Y-70390513D01*
X155560159Y-70336985D01*
X155548245Y-70279602D01*
X155535734Y-70219126D01*
X155532825Y-70205039D01*
X155520223Y-70144007D01*
X155508214Y-70085921D01*
X155496955Y-70031541D01*
X155486606Y-69981625D01*
X155477324Y-69936932D01*
X155469265Y-69898221D01*
X155462590Y-69866251D01*
X155457454Y-69841779D01*
X155454016Y-69825566D01*
X155452434Y-69818369D01*
X155452349Y-69818069D01*
X155447902Y-69815540D01*
X155434984Y-69808283D01*
X155413999Y-69796525D01*
X155385349Y-69780489D01*
X155349435Y-69760401D01*
X155306659Y-69736484D01*
X155257423Y-69708963D01*
X155202130Y-69678064D01*
X155141181Y-69644010D01*
X155074979Y-69607026D01*
X155003926Y-69567338D01*
X154928423Y-69525169D01*
X154848873Y-69480744D01*
X154765677Y-69434288D01*
X154679239Y-69386026D01*
X154589959Y-69336181D01*
X154498240Y-69284979D01*
X154481423Y-69275592D01*
X154389259Y-69224138D01*
X154299440Y-69173978D01*
X154212369Y-69125339D01*
X154128449Y-69078446D01*
X154048085Y-69033525D01*
X153971679Y-68990802D01*
X153899636Y-68950504D01*
X153832359Y-68912857D01*
X153770252Y-68878085D01*
X153713718Y-68846416D01*
X153663161Y-68818075D01*
X153618985Y-68793288D01*
X153581593Y-68772282D01*
X153551388Y-68755282D01*
X153528776Y-68742514D01*
X153514158Y-68734204D01*
X153507940Y-68730578D01*
X153507745Y-68730442D01*
X153507504Y-68725154D01*
X153507438Y-68710483D01*
X153507536Y-68687208D01*
X153507786Y-68656103D01*
X153508174Y-68617945D01*
X153508688Y-68573511D01*
X153509316Y-68523576D01*
X153510046Y-68468919D01*
X153510865Y-68410313D01*
X153511760Y-68348537D01*
X153512720Y-68284366D01*
X153513731Y-68218577D01*
X153514782Y-68151947D01*
X153515860Y-68085250D01*
X153516953Y-68019265D01*
X153518047Y-67954767D01*
X153519131Y-67892532D01*
X153520193Y-67833338D01*
X153521219Y-67777959D01*
X153522198Y-67727174D01*
X153523117Y-67681757D01*
X153523964Y-67642487D01*
X153524725Y-67610137D01*
X153525390Y-67585486D01*
X153525945Y-67569310D01*
X153526377Y-67562385D01*
X153526432Y-67562190D01*
X153530832Y-67564601D01*
X153543586Y-67571932D01*
X153564295Y-67583948D01*
X153592559Y-67600414D01*
X153627977Y-67621095D01*
X153670149Y-67645757D01*
X153718673Y-67674165D01*
X153773151Y-67706084D01*
X153833182Y-67741279D01*
X153898364Y-67779517D01*
X153968299Y-67820561D01*
X154042585Y-67864178D01*
X154120823Y-67910132D01*
X154202611Y-67958190D01*
X154287550Y-68008115D01*
X154375239Y-68059674D01*
X154465278Y-68112631D01*
X154467974Y-68114217D01*
X155408602Y-68667553D01*
X155406020Y-67502779D01*
X154006922Y-66680969D01*
X153896763Y-66616267D01*
X153788869Y-66552900D01*
X153683569Y-66491064D01*
X153581191Y-66430949D01*
X153482064Y-66372749D01*
X153386517Y-66316657D01*
X153294878Y-66262865D01*
X153207475Y-66211567D01*
X153124639Y-66162955D01*
X153046696Y-66117222D01*
X152973976Y-66074560D01*
X152906808Y-66035163D01*
X152845519Y-65999224D01*
X152790439Y-65966934D01*
X152741896Y-65938487D01*
X152700220Y-65914076D01*
X152665737Y-65893894D01*
X152638778Y-65878132D01*
X152619671Y-65866985D01*
X152608744Y-65860645D01*
X152606112Y-65859159D01*
X152605982Y-65864178D01*
X152605855Y-65878990D01*
X152605730Y-65903228D01*
X152605609Y-65936525D01*
X152605491Y-65978514D01*
X152605378Y-66028828D01*
X152605268Y-66087101D01*
X152605164Y-66152965D01*
X152605065Y-66226052D01*
X152604971Y-66305997D01*
X152604883Y-66392433D01*
X152604801Y-66484991D01*
X152604725Y-66583306D01*
X152604657Y-66687011D01*
X152604596Y-66795737D01*
X152604542Y-66909120D01*
X152604496Y-67026790D01*
X152604459Y-67148382D01*
X152604431Y-67273529D01*
X152604411Y-67401863D01*
X152604401Y-67533017D01*
X152604400Y-67604022D01*
X149854416Y-67604022D01*
X149854149Y-67583066D01*
X149853846Y-67500000D01*
X149854216Y-67405375D01*
X149855449Y-67318826D01*
X149857670Y-67238295D01*
X149860999Y-67161727D01*
X149865562Y-67087063D01*
X149871481Y-67012247D01*
X149878879Y-66935221D01*
X149887880Y-66853929D01*
X149896981Y-66779150D01*
X149931593Y-66544772D01*
X149976104Y-66312411D01*
X150030402Y-66082355D01*
X150094373Y-65854891D01*
X150167905Y-65630305D01*
X150250886Y-65408887D01*
X150343202Y-65190922D01*
X150444742Y-64976699D01*
X150555392Y-64766504D01*
X150675039Y-64560626D01*
X150803572Y-64359350D01*
X150900930Y-64218320D01*
X150968007Y-64126616D01*
X151041072Y-64031147D01*
X151118119Y-63934419D01*
X151197145Y-63838939D01*
X151276144Y-63747216D01*
X151290791Y-63730640D01*
X151314633Y-63704442D01*
X151344707Y-63672463D01*
X151379861Y-63635852D01*
X151418942Y-63595756D01*
X151460796Y-63553324D01*
X151504271Y-63509705D01*
X151548215Y-63466046D01*
X151591473Y-63423496D01*
X151632894Y-63383205D01*
X151671324Y-63346319D01*
X151705611Y-63313987D01*
X151734601Y-63287359D01*
X151745880Y-63277307D01*
X151920726Y-63128944D01*
X152097577Y-62989865D01*
X152277618Y-62859230D01*
X152462039Y-62736196D01*
X152652028Y-62619920D01*
X152761880Y-62557118D01*
X152968268Y-62447770D01*
X153179733Y-62347069D01*
X153395748Y-62255187D01*
X153615784Y-62172296D01*
X153839314Y-62098568D01*
X154065810Y-62034176D01*
X154294746Y-61979293D01*
X154525592Y-61934089D01*
X154757822Y-61898739D01*
X154791340Y-61894470D01*
X154869303Y-61885122D01*
X154941608Y-61877226D01*
X155010086Y-61870677D01*
X155076571Y-61865371D01*
X155142896Y-61861201D01*
X155210894Y-61858061D01*
X155282397Y-61855847D01*
X155359238Y-61854452D01*
X155443250Y-61853772D01*
X155500000Y-61853662D01*
X155589404Y-61853952D01*
D13*
%TO.C,J1*%
X183460000Y-61440000D02*
X177490000Y-61440000D01*
X177490000Y-61440000D02*
X177490000Y-74060000D01*
X177490000Y-74060000D02*
X183460000Y-74060000D01*
X183460000Y-74060000D02*
X183460000Y-61440000D01*
X183450000Y-64750000D02*
X182700000Y-64750000D01*
X182700000Y-64750000D02*
X182700000Y-70750000D01*
X182700000Y-70750000D02*
X183450000Y-70750000D01*
X183450000Y-70750000D02*
X183450000Y-64750000D01*
X183450000Y-61450000D02*
X182700000Y-61450000D01*
X182700000Y-61450000D02*
X182700000Y-63250000D01*
X182700000Y-63250000D02*
X183450000Y-63250000D01*
X183450000Y-63250000D02*
X183450000Y-61450000D01*
X183450000Y-72250000D02*
X182700000Y-72250000D01*
X182700000Y-72250000D02*
X182700000Y-74050000D01*
X182700000Y-74050000D02*
X183450000Y-74050000D01*
X183450000Y-74050000D02*
X183450000Y-72250000D01*
X181200000Y-61450000D02*
X181200000Y-62200000D01*
X181200000Y-62200000D02*
X178250000Y-62200000D01*
X178250000Y-62200000D02*
X178250000Y-67750000D01*
X181200000Y-74050000D02*
X181200000Y-73300000D01*
X181200000Y-73300000D02*
X178250000Y-73300000D01*
X178250000Y-73300000D02*
X178250000Y-67750000D01*
X183750000Y-62400000D02*
X183750000Y-61150000D01*
X183750000Y-61150000D02*
X182500000Y-61150000D01*
%TO.C,J3*%
X125900000Y-61250000D02*
X125900000Y-62500000D01*
X127150000Y-61250000D02*
X125900000Y-61250000D01*
X133050000Y-66750000D02*
X130000000Y-66750000D01*
X133050000Y-63800000D02*
X133050000Y-66750000D01*
X133800000Y-63800000D02*
X133050000Y-63800000D01*
X126950000Y-66750000D02*
X130000000Y-66750000D01*
X126950000Y-63800000D02*
X126950000Y-66750000D01*
X126200000Y-63800000D02*
X126950000Y-63800000D01*
X133800000Y-61550000D02*
X132000000Y-61550000D01*
X133800000Y-62300000D02*
X133800000Y-61550000D01*
X132000000Y-62300000D02*
X133800000Y-62300000D01*
X132000000Y-61550000D02*
X132000000Y-62300000D01*
X128000000Y-61550000D02*
X126200000Y-61550000D01*
X128000000Y-62300000D02*
X128000000Y-61550000D01*
X126200000Y-62300000D02*
X128000000Y-62300000D01*
X126200000Y-61550000D02*
X126200000Y-62300000D01*
X130500000Y-61550000D02*
X129500000Y-61550000D01*
X130500000Y-62300000D02*
X130500000Y-61550000D01*
X129500000Y-62300000D02*
X130500000Y-62300000D01*
X129500000Y-61550000D02*
X129500000Y-62300000D01*
X133810000Y-61540000D02*
X126190000Y-61540000D01*
X133810000Y-67510000D02*
X133810000Y-61540000D01*
X126190000Y-67510000D02*
X133810000Y-67510000D01*
X126190000Y-61540000D02*
X126190000Y-67510000D01*
%TO.C,J4*%
X115440000Y-61540000D02*
X115440000Y-67510000D01*
X115440000Y-67510000D02*
X123060000Y-67510000D01*
X123060000Y-67510000D02*
X123060000Y-61540000D01*
X123060000Y-61540000D02*
X115440000Y-61540000D01*
X118750000Y-61550000D02*
X118750000Y-62300000D01*
X118750000Y-62300000D02*
X119750000Y-62300000D01*
X119750000Y-62300000D02*
X119750000Y-61550000D01*
X119750000Y-61550000D02*
X118750000Y-61550000D01*
X115450000Y-61550000D02*
X115450000Y-62300000D01*
X115450000Y-62300000D02*
X117250000Y-62300000D01*
X117250000Y-62300000D02*
X117250000Y-61550000D01*
X117250000Y-61550000D02*
X115450000Y-61550000D01*
X121250000Y-61550000D02*
X121250000Y-62300000D01*
X121250000Y-62300000D02*
X123050000Y-62300000D01*
X123050000Y-62300000D02*
X123050000Y-61550000D01*
X123050000Y-61550000D02*
X121250000Y-61550000D01*
X115450000Y-63800000D02*
X116200000Y-63800000D01*
X116200000Y-63800000D02*
X116200000Y-66750000D01*
X116200000Y-66750000D02*
X119250000Y-66750000D01*
X123050000Y-63800000D02*
X122300000Y-63800000D01*
X122300000Y-63800000D02*
X122300000Y-66750000D01*
X122300000Y-66750000D02*
X119250000Y-66750000D01*
X116400000Y-61250000D02*
X115150000Y-61250000D01*
X115150000Y-61250000D02*
X115150000Y-62500000D01*
%TO.C,J5*%
X138260000Y-80000000D02*
G75*
G03*
X138260000Y-80000000I-1680000J0D01*
G01*
X128900000Y-84100000D02*
X139180000Y-84100000D01*
X128900000Y-82600000D02*
X139180000Y-82600000D01*
X128900000Y-77699000D02*
X139180000Y-77699000D01*
X128900000Y-74739000D02*
X139180000Y-74739000D01*
X128900000Y-84660000D02*
X139180000Y-84660000D01*
X128900000Y-74739000D02*
X128900000Y-84660000D01*
X139180000Y-74739000D02*
X139180000Y-84660000D01*
X137855000Y-78931000D02*
X137808000Y-78977000D01*
X135546000Y-81239000D02*
X135511000Y-81274000D01*
X137650000Y-78725000D02*
X137615000Y-78761000D01*
X135353000Y-81023000D02*
X135306000Y-81069000D01*
X128660000Y-84160000D02*
X128660000Y-84900000D01*
X128660000Y-84900000D02*
X129160000Y-84900000D01*
X132183318Y-81534756D02*
G75*
G02*
X131500000Y-81680000I-683318J1534756D01*
G01*
X133035426Y-79316958D02*
G75*
G02*
X133035000Y-80684000I-1535426J-683042D01*
G01*
X130816958Y-78464574D02*
G75*
G02*
X132184000Y-78465000I683042J-1535426D01*
G01*
X129964574Y-80683042D02*
G75*
G02*
X129965000Y-79316000I1535426J683042D01*
G01*
X131528805Y-81680253D02*
G75*
G02*
X130816000Y-81535000I-28805J1680253D01*
G01*
%TO.C,J6*%
X142150000Y-77750000D02*
X142150000Y-79000000D01*
X143400000Y-77750000D02*
X142150000Y-77750000D01*
X149300000Y-83250000D02*
X146250000Y-83250000D01*
X149300000Y-80300000D02*
X149300000Y-83250000D01*
X150050000Y-80300000D02*
X149300000Y-80300000D01*
X143200000Y-83250000D02*
X146250000Y-83250000D01*
X143200000Y-80300000D02*
X143200000Y-83250000D01*
X142450000Y-80300000D02*
X143200000Y-80300000D01*
X150050000Y-78050000D02*
X148250000Y-78050000D01*
X150050000Y-78800000D02*
X150050000Y-78050000D01*
X148250000Y-78800000D02*
X150050000Y-78800000D01*
X148250000Y-78050000D02*
X148250000Y-78800000D01*
X144250000Y-78050000D02*
X142450000Y-78050000D01*
X144250000Y-78800000D02*
X144250000Y-78050000D01*
X142450000Y-78800000D02*
X144250000Y-78800000D01*
X142450000Y-78050000D02*
X142450000Y-78800000D01*
X146750000Y-78050000D02*
X145750000Y-78050000D01*
X146750000Y-78800000D02*
X146750000Y-78050000D01*
X145750000Y-78800000D02*
X146750000Y-78800000D01*
X145750000Y-78050000D02*
X145750000Y-78800000D01*
X150060000Y-78040000D02*
X142440000Y-78040000D01*
X150060000Y-84010000D02*
X150060000Y-78040000D01*
X142440000Y-84010000D02*
X150060000Y-84010000D01*
X142440000Y-78040000D02*
X142440000Y-84010000D01*
%TO.C,J8*%
X109100000Y-64250000D02*
X109100000Y-63200000D01*
X108050000Y-63200000D02*
X109100000Y-63200000D01*
X103000000Y-72600000D02*
X94200000Y-72600000D01*
X94200000Y-72600000D02*
X94200000Y-63400000D01*
X108900000Y-69900000D02*
X108900000Y-72600000D01*
X108900000Y-72600000D02*
X107000000Y-72600000D01*
X94200000Y-63400000D02*
X108900000Y-63400000D01*
X108900000Y-63400000D02*
X108900000Y-66000000D01*
%TO.C,J9*%
X116160000Y-84900000D02*
X116660000Y-84900000D01*
X116160000Y-84160000D02*
X116160000Y-84900000D01*
X122853000Y-81023000D02*
X122806000Y-81069000D01*
X125150000Y-78725000D02*
X125115000Y-78761000D01*
X123046000Y-81239000D02*
X123011000Y-81274000D01*
X125355000Y-78931000D02*
X125308000Y-78977000D01*
X126680000Y-74739000D02*
X126680000Y-84660000D01*
X116400000Y-74739000D02*
X116400000Y-84660000D01*
X116400000Y-84660000D02*
X126680000Y-84660000D01*
X116400000Y-74739000D02*
X126680000Y-74739000D01*
X116400000Y-77699000D02*
X126680000Y-77699000D01*
X116400000Y-82600000D02*
X126680000Y-82600000D01*
X116400000Y-84100000D02*
X126680000Y-84100000D01*
X125760000Y-80000000D02*
G75*
G03*
X125760000Y-80000000I-1680000J0D01*
G01*
X119028805Y-81680253D02*
G75*
G02*
X118316000Y-81535000I-28805J1680253D01*
G01*
X117464574Y-80683042D02*
G75*
G02*
X117465000Y-79316000I1535426J683042D01*
G01*
X118316958Y-78464574D02*
G75*
G02*
X119684000Y-78465000I683042J-1535426D01*
G01*
X120535426Y-79316958D02*
G75*
G02*
X120535000Y-80684000I-1535426J-683042D01*
G01*
X119683318Y-81534756D02*
G75*
G02*
X119000000Y-81680000I-683318J1534756D01*
G01*
%TO.C,J7*%
D10*
X169936666Y-51852380D02*
X169936666Y-52566666D01*
X169889047Y-52709523D01*
X169793809Y-52804761D01*
X169650952Y-52852380D01*
X169555714Y-52852380D01*
X170317619Y-51852380D02*
X170984285Y-51852380D01*
X170555714Y-52852380D01*
%TO.C,J2*%
X140666666Y-64952380D02*
X140666666Y-65666666D01*
X140619047Y-65809523D01*
X140523809Y-65904761D01*
X140380952Y-65952380D01*
X140285714Y-65952380D01*
X141095238Y-65047619D02*
X141142857Y-65000000D01*
X141238095Y-64952380D01*
X141476190Y-64952380D01*
X141571428Y-65000000D01*
X141619047Y-65047619D01*
X141666666Y-65142857D01*
X141666666Y-65238095D01*
X141619047Y-65380952D01*
X141047619Y-65952380D01*
X141666666Y-65952380D01*
%TO.C,J1*%
X178452380Y-68333333D02*
X179166666Y-68333333D01*
X179309523Y-68380952D01*
X179404761Y-68476190D01*
X179452380Y-68619047D01*
X179452380Y-68714285D01*
X179452380Y-67333333D02*
X179452380Y-67904761D01*
X179452380Y-67619047D02*
X178452380Y-67619047D01*
X178595238Y-67714285D01*
X178690476Y-67809523D01*
X178738095Y-67904761D01*
%TO.C,J3*%
X129666666Y-65452380D02*
X129666666Y-66166666D01*
X129619047Y-66309523D01*
X129523809Y-66404761D01*
X129380952Y-66452380D01*
X129285714Y-66452380D01*
X130047619Y-65452380D02*
X130666666Y-65452380D01*
X130333333Y-65833333D01*
X130476190Y-65833333D01*
X130571428Y-65880952D01*
X130619047Y-65928571D01*
X130666666Y-66023809D01*
X130666666Y-66261904D01*
X130619047Y-66357142D01*
X130571428Y-66404761D01*
X130476190Y-66452380D01*
X130190476Y-66452380D01*
X130095238Y-66404761D01*
X130047619Y-66357142D01*
%TO.C,J4*%
X119166666Y-65452380D02*
X119166666Y-66166666D01*
X119119047Y-66309523D01*
X119023809Y-66404761D01*
X118880952Y-66452380D01*
X118785714Y-66452380D01*
X120071428Y-65785714D02*
X120071428Y-66452380D01*
X119833333Y-65404761D02*
X119595238Y-66119047D01*
X120214285Y-66119047D01*
%TO.C,J5*%
X133706666Y-75952380D02*
X133706666Y-76666666D01*
X133659047Y-76809523D01*
X133563809Y-76904761D01*
X133420952Y-76952380D01*
X133325714Y-76952380D01*
X134659047Y-75952380D02*
X134182857Y-75952380D01*
X134135238Y-76428571D01*
X134182857Y-76380952D01*
X134278095Y-76333333D01*
X134516190Y-76333333D01*
X134611428Y-76380952D01*
X134659047Y-76428571D01*
X134706666Y-76523809D01*
X134706666Y-76761904D01*
X134659047Y-76857142D01*
X134611428Y-76904761D01*
X134516190Y-76952380D01*
X134278095Y-76952380D01*
X134182857Y-76904761D01*
X134135238Y-76857142D01*
%TO.C,J6*%
X145916666Y-81952380D02*
X145916666Y-82666666D01*
X145869047Y-82809523D01*
X145773809Y-82904761D01*
X145630952Y-82952380D01*
X145535714Y-82952380D01*
X146821428Y-81952380D02*
X146630952Y-81952380D01*
X146535714Y-82000000D01*
X146488095Y-82047619D01*
X146392857Y-82190476D01*
X146345238Y-82380952D01*
X146345238Y-82761904D01*
X146392857Y-82857142D01*
X146440476Y-82904761D01*
X146535714Y-82952380D01*
X146726190Y-82952380D01*
X146821428Y-82904761D01*
X146869047Y-82857142D01*
X146916666Y-82761904D01*
X146916666Y-82523809D01*
X146869047Y-82428571D01*
X146821428Y-82380952D01*
X146726190Y-82333333D01*
X146535714Y-82333333D01*
X146440476Y-82380952D01*
X146392857Y-82428571D01*
X146345238Y-82523809D01*
%TO.C,J8*%
X98166666Y-67452380D02*
X98166666Y-68166666D01*
X98119047Y-68309523D01*
X98023809Y-68404761D01*
X97880952Y-68452380D01*
X97785714Y-68452380D01*
X98785714Y-67880952D02*
X98690476Y-67833333D01*
X98642857Y-67785714D01*
X98595238Y-67690476D01*
X98595238Y-67642857D01*
X98642857Y-67547619D01*
X98690476Y-67500000D01*
X98785714Y-67452380D01*
X98976190Y-67452380D01*
X99071428Y-67500000D01*
X99119047Y-67547619D01*
X99166666Y-67642857D01*
X99166666Y-67690476D01*
X99119047Y-67785714D01*
X99071428Y-67833333D01*
X98976190Y-67880952D01*
X98785714Y-67880952D01*
X98690476Y-67928571D01*
X98642857Y-67976190D01*
X98595238Y-68071428D01*
X98595238Y-68261904D01*
X98642857Y-68357142D01*
X98690476Y-68404761D01*
X98785714Y-68452380D01*
X98976190Y-68452380D01*
X99071428Y-68404761D01*
X99119047Y-68357142D01*
X99166666Y-68261904D01*
X99166666Y-68071428D01*
X99119047Y-67976190D01*
X99071428Y-67928571D01*
X98976190Y-67880952D01*
%TO.C,J9*%
X121206666Y-75952380D02*
X121206666Y-76666666D01*
X121159047Y-76809523D01*
X121063809Y-76904761D01*
X120920952Y-76952380D01*
X120825714Y-76952380D01*
X121730476Y-76952380D02*
X121920952Y-76952380D01*
X122016190Y-76904761D01*
X122063809Y-76857142D01*
X122159047Y-76714285D01*
X122206666Y-76523809D01*
X122206666Y-76142857D01*
X122159047Y-76047619D01*
X122111428Y-76000000D01*
X122016190Y-75952380D01*
X121825714Y-75952380D01*
X121730476Y-76000000D01*
X121682857Y-76047619D01*
X121635238Y-76142857D01*
X121635238Y-76380952D01*
X121682857Y-76476190D01*
X121730476Y-76523809D01*
X121825714Y-76571428D01*
X122016190Y-76571428D01*
X122111428Y-76523809D01*
X122159047Y-76476190D01*
X122206666Y-76380952D01*
%TD*%
M02*
